<?xml version="1.0" encoding="UTF-8"?>
<svg xmlns="http://www.w3.org/2000/svg" width="900" height="900" viewBox="0 0 900 900" role="img" aria-label="NautiBite logo">
<title>NautiBite logo</title>
<desc>Vectorized nautical fishing logo generated from the supplied raster reference.</desc>
<g shape-rendering="geometricPrecision">
<path d="M 726.0 703.0 L 718.0 712.0 L 715.0 718.0 L 709.0 737.0 L 709.0 741.0 L 707.0 745.0 L 706.0 751.0 L 706.0 758.0 L 709.0 766.0 L 717.0 771.0 L 727.0 773.0 L 759.0 773.0 L 771.0 772.0 L 775.0 770.0 L 775.0 767.0 L 778.0 759.0 L 776.0 756.0 L 769.0 758.0 L 738.0 758.0 L 735.0 757.0 L 731.0 753.0 L 730.0 747.0 L 731.0 746.0 L 731.0 743.0 L 733.0 741.0 L 778.0 741.0 L 782.0 739.0 L 787.0 734.0 L 791.0 720.0 L 791.0 707.0 L 790.0 705.0 L 785.0 700.0 L 776.0 697.0 L 743.0 697.0 L 734.0 699.0 Z M 735.0 726.0 L 738.0 718.0 L 743.0 713.0 L 747.0 711.0 L 764.0 711.0 L 768.0 714.0 L 769.0 717.0 L 768.0 725.0 L 765.0 729.0 L 737.0 729.0 Z M 647.0 698.0 L 645.0 697.0 L 632.0 697.0 L 626.0 698.0 L 624.0 700.0 L 623.0 707.0 L 621.0 711.0 L 620.0 719.0 L 615.0 734.0 L 615.0 738.0 L 607.0 766.0 L 607.0 772.0 L 628.0 772.0 L 630.0 770.0 L 630.0 766.0 L 633.0 758.0 L 642.0 724.0 L 642.0 720.0 L 647.0 704.0 Z M 498.0 697.0 L 491.0 697.0 L 477.0 699.0 L 476.0 706.0 L 473.0 714.0 L 473.0 718.0 L 468.0 733.0 L 467.0 741.0 L 464.0 749.0 L 463.0 757.0 L 459.0 768.0 L 459.0 772.0 L 482.0 771.0 L 492.0 734.0 L 495.0 718.0 L 501.0 699.0 Z M 326.0 699.0 L 323.0 714.0 L 318.0 729.0 L 318.0 733.0 L 313.0 749.0 L 313.0 763.0 L 315.0 767.0 L 317.0 769.0 L 327.0 773.0 L 345.0 773.0 L 356.0 770.0 L 364.0 764.0 L 366.0 766.0 L 366.0 772.0 L 385.0 771.0 L 395.0 735.0 L 402.0 704.0 L 403.0 703.0 L 403.0 697.0 L 396.0 698.0 L 395.0 697.0 L 388.0 697.0 L 381.0 699.0 L 381.0 702.0 L 379.0 706.0 L 379.0 710.0 L 371.0 737.0 L 371.0 741.0 L 369.0 748.0 L 363.0 755.0 L 354.0 758.0 L 346.0 758.0 L 342.0 757.0 L 337.0 753.0 L 337.0 743.0 L 342.0 728.0 L 345.0 716.0 L 345.0 712.0 L 348.0 704.0 L 348.0 698.0 L 336.0 697.0 Z M 243.0 700.0 L 239.0 713.0 L 241.0 714.0 L 248.0 712.0 L 258.0 711.0 L 276.0 711.0 L 281.0 712.0 L 286.0 716.0 L 286.0 724.0 L 283.0 727.0 L 255.0 727.0 L 240.0 730.0 L 234.0 733.0 L 229.0 738.0 L 224.0 750.0 L 223.0 762.0 L 225.0 767.0 L 228.0 770.0 L 232.0 772.0 L 237.0 773.0 L 256.0 773.0 L 265.0 771.0 L 275.0 765.0 L 277.0 767.0 L 278.0 772.0 L 295.0 772.0 L 297.0 770.0 L 297.0 766.0 L 299.0 762.0 L 299.0 758.0 L 304.0 738.0 L 309.0 723.0 L 310.0 717.0 L 310.0 709.0 L 309.0 705.0 L 304.0 700.0 L 294.0 697.0 L 256.0 697.0 L 247.0 698.0 Z M 281.0 742.0 L 278.0 754.0 L 272.0 758.0 L 268.0 759.0 L 252.0 759.0 L 249.0 758.0 L 246.0 754.0 L 247.0 747.0 L 252.0 741.0 L 255.0 740.0 L 278.0 739.0 Z M 696.0 676.0 L 674.0 677.0 L 671.0 686.0 L 669.0 696.0 L 667.0 698.0 L 657.0 699.0 L 654.0 710.0 L 656.0 713.0 L 662.0 712.0 L 664.0 715.0 L 663.0 720.0 L 661.0 723.0 L 658.0 735.0 L 658.0 739.0 L 653.0 755.0 L 653.0 764.0 L 655.0 768.0 L 661.0 772.0 L 666.0 773.0 L 686.0 773.0 L 691.0 772.0 L 693.0 770.0 L 696.0 757.0 L 682.0 757.0 L 678.0 753.0 L 678.0 747.0 L 680.0 739.0 L 682.0 735.0 L 683.0 727.0 L 686.0 716.0 L 689.0 713.0 L 703.0 713.0 L 704.0 712.0 L 708.0 712.0 L 708.0 709.0 L 711.0 701.0 L 710.0 697.0 L 698.0 698.0 L 697.0 697.0 L 694.0 697.0 L 692.0 694.0 L 696.0 681.0 Z M 451.0 676.0 L 429.0 677.0 L 427.0 682.0 L 426.0 690.0 L 424.0 696.0 L 422.0 698.0 L 413.0 699.0 L 410.0 709.0 L 410.0 713.0 L 417.0 713.0 L 419.0 715.0 L 419.0 717.0 L 418.0 718.0 L 417.0 725.0 L 416.0 726.0 L 409.0 753.0 L 408.0 762.0 L 409.0 766.0 L 413.0 770.0 L 417.0 772.0 L 422.0 773.0 L 442.0 773.0 L 447.0 771.0 L 448.0 769.0 L 449.0 762.0 L 451.0 757.0 L 437.0 757.0 L 433.0 753.0 L 433.0 749.0 L 437.0 732.0 L 441.0 721.0 L 441.0 717.0 L 444.0 713.0 L 463.0 712.0 L 464.0 705.0 L 466.0 701.0 L 465.0 698.0 L 463.0 697.0 L 449.0 698.0 L 447.0 696.0 L 447.0 694.0 L 449.0 690.0 L 449.0 686.0 L 451.0 682.0 Z M 632.0 668.0 L 629.0 684.0 L 652.0 683.0 L 655.0 674.0 L 656.0 666.0 L 634.0 666.0 Z M 527.0 667.0 L 518.0 704.0 L 506.0 746.0 L 506.0 750.0 L 501.0 766.0 L 501.0 772.0 L 569.0 772.0 L 580.0 769.0 L 589.0 764.0 L 596.0 756.0 L 601.0 744.0 L 602.0 737.0 L 601.0 729.0 L 599.0 725.0 L 588.0 716.0 L 592.0 715.0 L 601.0 710.0 L 605.0 706.0 L 609.0 699.0 L 612.0 688.0 L 612.0 680.0 L 609.0 673.0 L 604.0 669.0 L 593.0 666.0 Z M 529.0 753.0 L 535.0 728.0 L 537.0 726.0 L 567.0 726.0 L 572.0 728.0 L 577.0 733.0 L 577.0 742.0 L 575.0 747.0 L 569.0 753.0 L 565.0 755.0 L 531.0 755.0 Z M 541.0 708.0 L 544.0 698.0 L 546.0 687.0 L 549.0 683.0 L 579.0 683.0 L 585.0 687.0 L 586.0 690.0 L 585.0 699.0 L 583.0 703.0 L 576.0 709.0 L 571.0 710.0 L 543.0 710.0 Z M 485.0 667.0 L 485.0 670.0 L 481.0 681.0 L 482.0 684.0 L 505.0 683.0 L 505.0 680.0 L 507.0 676.0 L 508.0 666.0 Z M 135.0 666.0 L 133.0 668.0 L 127.0 695.0 L 107.0 767.0 L 108.0 772.0 L 129.0 772.0 L 131.0 770.0 L 131.0 766.0 L 144.0 720.0 L 144.0 716.0 L 148.0 702.0 L 150.0 700.0 L 153.0 704.0 L 179.0 770.0 L 181.0 772.0 L 204.0 772.0 L 206.0 770.0 L 223.0 701.0 L 232.0 670.0 L 232.0 666.0 L 208.0 667.0 L 194.0 726.0 L 190.0 734.0 L 188.0 732.0 L 185.0 722.0 L 162.0 667.0 Z M 448.0 563.0 L 442.0 566.0 L 441.0 568.0 L 441.0 573.0 L 443.0 576.0 L 451.0 578.0 L 454.0 581.0 L 454.0 583.0 L 452.0 585.0 L 447.0 585.0 L 442.0 583.0 L 440.0 585.0 L 444.0 588.0 L 447.0 589.0 L 452.0 589.0 L 458.0 585.0 L 459.0 580.0 L 458.0 578.0 L 454.0 575.0 L 447.0 573.0 L 445.0 571.0 L 445.0 569.0 L 447.0 567.0 L 454.0 568.0 L 457.0 566.0 L 455.0 564.0 Z M 304.0 532.0 L 302.0 537.0 L 303.0 544.0 L 303.0 542.0 L 304.0 541.0 Z M 392.0 519.0 L 392.0 521.0 L 406.0 527.0 L 412.0 528.0 L 416.0 530.0 L 419.0 529.0 L 418.0 525.0 L 416.0 524.0 L 407.0 522.0 L 397.0 517.0 L 394.0 517.0 Z M 344.0 463.0 L 341.0 463.0 L 333.0 471.0 L 323.0 484.0 L 311.0 506.0 L 305.0 523.0 L 306.0 527.0 L 309.0 521.0 L 309.0 518.0 L 317.0 500.0 L 327.0 484.0 L 333.0 476.0 L 344.0 465.0 Z M 494.0 459.0 L 488.0 463.0 L 483.0 465.0 L 480.0 468.0 L 466.0 475.0 L 463.0 492.0 L 460.0 503.0 L 455.0 515.0 L 453.0 517.0 L 453.0 519.0 L 449.0 525.0 L 450.0 545.0 L 450.0 539.0 L 452.0 530.0 L 454.0 528.0 L 459.0 528.0 L 462.0 527.0 L 464.0 525.0 L 464.0 519.0 L 470.0 488.0 L 472.0 483.0 L 472.0 478.0 L 474.0 476.0 L 480.0 474.0 L 487.0 469.0 L 489.0 469.0 L 522.0 501.0 L 526.0 499.0 L 498.0 473.0 L 491.0 465.0 Z M 417.0 432.0 L 413.0 431.0 L 397.0 431.0 L 382.0 434.0 L 366.0 440.0 L 349.0 450.0 L 344.0 455.0 L 349.0 457.0 L 354.0 457.0 L 358.0 459.0 L 372.0 462.0 L 391.0 462.0 L 403.0 457.0 L 409.0 451.0 L 411.0 448.0 Z M 403.0 436.0 L 400.0 437.0 L 395.0 437.0 L 377.0 443.0 L 367.0 448.0 L 363.0 451.0 L 368.0 451.0 L 371.0 449.0 L 374.0 449.0 L 377.0 447.0 L 383.0 446.0 L 386.0 444.0 L 391.0 443.0 L 393.0 446.0 L 391.0 446.0 L 381.0 450.0 L 375.0 454.0 L 380.0 454.0 L 391.0 450.0 L 392.0 453.0 L 397.0 452.0 L 399.0 454.0 L 385.0 460.0 L 377.0 460.0 L 366.0 458.0 L 357.0 455.0 L 352.0 455.0 L 350.0 453.0 L 357.0 447.0 L 374.0 439.0 L 377.0 439.0 L 380.0 437.0 L 400.0 433.0 Z M 504.0 453.0 L 506.0 452.0 L 516.0 452.0 L 547.0 448.0 L 555.0 449.0 L 555.0 453.0 L 552.0 465.0 L 549.0 472.0 L 541.0 486.0 L 532.0 497.0 L 534.0 497.0 L 542.0 493.0 L 550.0 482.0 L 558.0 464.0 L 561.0 453.0 L 561.0 449.0 L 563.0 447.0 L 581.0 444.0 L 592.0 444.0 L 599.0 443.0 L 600.0 442.0 L 605.0 442.0 L 607.0 444.0 L 605.0 462.0 L 603.0 467.0 L 603.0 471.0 L 605.0 471.0 L 607.0 470.0 L 609.0 467.0 L 609.0 461.0 L 612.0 449.0 L 612.0 443.0 L 614.0 441.0 L 618.0 440.0 L 638.0 438.0 L 636.0 427.0 L 538.0 426.0 L 518.0 443.0 L 511.0 447.0 Z M 712.0 427.0 L 706.0 425.0 L 703.0 427.0 L 682.0 428.0 L 683.0 432.0 L 686.0 432.0 L 699.0 429.0 L 705.0 429.0 Z M 728.0 417.0 L 728.0 419.0 L 727.0 420.0 L 728.0 439.0 L 742.0 436.0 L 733.0 436.0 L 731.0 434.0 L 731.0 430.0 L 733.0 428.0 L 741.0 427.0 L 733.0 426.0 L 731.0 424.0 L 731.0 421.0 L 733.0 419.0 L 742.0 416.0 L 730.0 416.0 Z M 147.0 416.0 L 147.0 420.0 L 150.0 428.0 L 150.0 432.0 L 153.0 439.0 L 157.0 438.0 L 157.0 435.0 L 159.0 431.0 L 159.0 427.0 L 160.0 425.0 L 163.0 425.0 L 167.0 439.0 L 171.0 438.0 L 172.0 431.0 L 174.0 427.0 L 174.0 423.0 L 176.0 419.0 L 176.0 416.0 L 173.0 417.0 L 171.0 423.0 L 171.0 426.0 L 167.0 430.0 L 162.0 416.0 L 158.0 421.0 L 158.0 424.0 L 156.0 429.0 L 153.0 429.0 L 151.0 418.0 L 149.0 416.0 Z M 412.0 412.0 L 398.0 418.0 L 389.0 424.0 L 393.0 424.0 Z M 274.0 415.0 L 273.0 412.0 L 270.0 412.0 L 265.0 414.0 L 240.0 417.0 L 235.0 419.0 L 229.0 419.0 L 218.0 422.0 L 195.0 425.0 L 190.0 428.0 L 200.0 429.0 L 217.0 433.0 L 229.0 434.0 L 234.0 436.0 L 240.0 436.0 L 252.0 439.0 L 258.0 439.0 L 259.0 440.0 L 265.0 439.0 L 264.0 431.0 L 269.0 425.0 L 269.0 422.0 L 271.0 418.0 Z M 450.0 408.0 L 453.0 413.0 L 457.0 417.0 L 463.0 421.0 L 469.0 423.0 L 480.0 423.0 L 484.0 421.0 L 478.0 422.0 L 464.0 419.0 L 459.0 416.0 L 451.0 407.0 Z M 564.0 403.0 L 569.0 405.0 L 575.0 406.0 L 591.0 407.0 L 579.0 404.0 Z M 488.0 353.0 L 486.0 354.0 L 483.0 358.0 L 483.0 365.0 L 484.0 367.0 L 488.0 370.0 L 495.0 370.0 L 498.0 368.0 L 500.0 365.0 L 500.0 357.0 L 495.0 353.0 Z M 490.0 354.0 L 493.0 354.0 L 495.0 356.0 L 496.0 359.0 L 493.0 362.0 L 489.0 362.0 L 487.0 360.0 L 487.0 357.0 Z M 631.0 304.0 L 631.0 306.0 L 639.0 315.0 L 632.0 325.0 L 635.0 324.0 L 642.0 317.0 L 650.0 326.0 L 652.0 326.0 L 652.0 324.0 L 644.0 316.0 L 644.0 314.0 L 651.0 305.0 L 649.0 305.0 L 641.0 312.0 L 633.0 304.0 Z M 601.0 297.0 L 595.0 300.0 L 595.0 303.0 L 561.0 335.0 L 561.0 337.0 L 566.0 342.0 L 568.0 342.0 L 571.0 338.0 L 573.0 338.0 L 576.0 341.0 L 587.0 356.0 L 595.0 373.0 L 598.0 377.0 L 600.0 382.0 L 600.0 385.0 L 602.0 388.0 L 605.0 398.0 L 606.0 406.0 L 604.0 408.0 L 594.0 408.0 L 596.0 409.0 L 601.0 409.0 L 602.0 410.0 L 627.0 414.0 L 633.0 414.0 L 634.0 415.0 L 636.0 414.0 L 629.0 412.0 L 617.0 411.0 L 614.0 410.0 L 611.0 407.0 L 611.0 402.0 L 609.0 398.0 L 609.0 394.0 L 607.0 387.0 L 599.0 367.0 L 589.0 350.0 L 575.0 332.0 L 597.0 304.0 Z M 419.0 280.0 L 412.0 280.0 L 403.0 282.0 L 380.0 290.0 L 356.0 303.0 L 333.0 321.0 L 303.0 300.0 L 295.0 296.0 L 308.0 314.0 L 313.0 319.0 L 315.0 323.0 L 322.0 331.0 L 322.0 334.0 L 313.0 344.0 L 306.0 354.0 L 295.0 373.0 L 291.0 383.0 L 296.0 381.0 L 299.0 378.0 L 300.0 370.0 L 305.0 366.0 L 314.0 351.0 L 325.0 338.0 L 327.0 338.0 L 334.0 345.0 L 342.0 344.0 L 365.0 348.0 L 369.0 350.0 L 374.0 350.0 L 344.0 329.0 L 339.0 324.0 L 346.0 317.0 L 364.0 304.0 L 366.0 304.0 L 389.0 292.0 L 418.0 284.0 Z M 479.0 282.0 L 480.0 284.0 L 485.0 286.0 L 489.0 286.0 L 500.0 289.0 L 518.0 296.0 L 535.0 305.0 L 548.0 314.0 L 558.0 323.0 L 554.0 327.0 L 548.0 330.0 L 547.0 332.0 L 550.0 331.0 L 569.0 317.0 L 571.0 317.0 L 581.0 309.0 L 583.0 309.0 L 587.0 306.0 L 585.0 306.0 L 576.0 313.0 L 574.0 313.0 L 567.0 319.0 L 563.0 320.0 L 546.0 306.0 L 537.0 300.0 L 526.0 294.0 L 520.0 292.0 L 518.0 290.0 L 507.0 286.0 L 501.0 285.0 L 495.0 282.0 L 480.0 279.0 Z M 608.0 217.0 L 600.0 219.0 L 594.0 225.0 L 592.0 229.0 L 592.0 239.0 L 593.0 242.0 L 600.0 254.0 L 600.0 256.0 L 603.0 259.0 L 607.0 267.0 L 609.0 267.0 L 624.0 238.0 L 624.0 230.0 L 620.0 222.0 L 616.0 219.0 Z M 605.0 225.0 L 611.0 225.0 L 613.0 226.0 L 617.0 231.0 L 617.0 236.0 L 616.0 238.0 L 610.0 243.0 L 606.0 243.0 L 602.0 241.0 L 599.0 237.0 L 599.0 230.0 Z M 273.0 200.0 L 268.0 202.0 L 263.0 207.0 L 261.0 212.0 L 261.0 219.0 L 267.0 232.0 L 274.0 243.0 L 277.0 245.0 L 291.0 221.0 L 291.0 210.0 L 289.0 206.0 L 283.0 201.0 Z M 273.0 207.0 L 279.0 207.0 L 281.0 208.0 L 284.0 211.0 L 285.0 214.0 L 284.0 219.0 L 278.0 224.0 L 275.0 224.0 L 271.0 222.0 L 268.0 218.0 L 268.0 212.0 Z M 445.0 184.0 L 440.0 203.0 L 440.0 209.0 L 437.0 219.0 L 437.0 224.0 L 435.0 229.0 L 435.0 235.0 L 427.0 270.0 L 426.0 282.0 L 422.0 298.0 L 419.0 320.0 L 417.0 325.0 L 417.0 332.0 L 414.0 335.0 L 409.0 336.0 L 393.0 344.0 L 391.0 346.0 L 396.0 345.0 L 402.0 342.0 L 415.0 339.0 L 417.0 337.0 L 421.0 317.0 L 421.0 311.0 L 423.0 306.0 L 423.0 300.0 L 426.0 289.0 L 426.0 281.0 L 428.0 278.0 L 429.0 267.0 L 431.0 262.0 L 434.0 241.0 L 436.0 236.0 L 436.0 230.0 L 439.0 220.0 L 441.0 204.0 L 444.0 193.0 Z M 448.0 165.0 L 448.0 172.0 L 450.0 173.0 L 451.0 331.0 L 466.0 329.0 L 478.0 329.0 L 480.0 328.0 L 481.0 326.0 L 477.0 309.0 L 477.0 303.0 L 475.0 298.0 L 475.0 293.0 L 472.0 283.0 L 472.0 277.0 L 470.0 272.0 L 469.0 261.0 L 467.0 256.0 L 467.0 251.0 L 465.0 246.0 L 464.0 235.0 L 462.0 230.0 L 462.0 225.0 L 459.0 215.0 L 454.0 184.0 L 452.0 179.0 L 452.0 174.0 L 451.0 170.0 Z M 439.0 128.0 L 442.0 151.0 L 444.0 136.0 L 448.0 140.0 L 453.0 149.0 L 457.0 152.0 L 460.0 151.0 L 459.0 127.0 L 456.0 128.0 L 454.0 142.0 L 451.0 139.0 L 443.0 127.0 Z M 691.0 170.0 L 634.0 125.0 L 583.0 99.0 L 511.0 79.0 L 477.0 75.0 L 472.0 77.0 L 474.0 83.0 L 506.0 86.0 L 551.0 96.0 L 611.0 121.0 L 657.0 151.0 L 702.0 193.0 L 740.0 244.0 L 766.0 296.0 L 783.0 351.0 L 789.0 406.0 L 771.0 401.0 L 764.0 351.0 L 747.0 299.0 L 723.0 252.0 L 692.0 210.0 L 660.0 178.0 L 632.0 156.0 L 581.0 127.0 L 528.0 109.0 L 466.0 100.0 L 449.0 17.0 L 440.0 57.0 L 437.0 100.0 L 378.0 107.0 L 312.0 129.0 L 255.0 163.0 L 207.0 207.0 L 176.0 248.0 L 148.0 302.0 L 132.0 352.0 L 125.0 401.0 L 108.0 407.0 L 107.0 390.0 L 114.0 348.0 L 131.0 295.0 L 159.0 241.0 L 201.0 187.0 L 237.0 154.0 L 291.0 119.0 L 355.0 94.0 L 426.0 81.0 L 425.0 75.0 L 363.0 84.0 L 302.0 105.0 L 245.0 138.0 L 191.0 186.0 L 148.0 244.0 L 124.0 292.0 L 107.0 345.0 L 99.0 408.0 L 51.0 423.0 L 124.0 435.0 L 128.0 484.0 L 142.0 541.0 L 165.0 594.0 L 193.0 636.0 L 172.0 638.0 L 139.0 582.0 L 114.0 508.0 L 105.0 444.0 L 99.0 444.0 L 104.0 495.0 L 117.0 546.0 L 135.0 591.0 L 161.0 635.0 L 160.0 638.0 L 118.0 640.0 L 104.0 655.0 L 74.0 771.0 L 75.0 785.0 L 85.0 797.0 L 92.0 800.0 L 338.0 800.0 L 389.0 815.0 L 425.0 820.0 L 426.0 814.0 L 368.0 802.0 L 435.0 800.0 L 449.0 868.0 L 462.0 803.0 L 465.0 800.0 L 530.0 802.0 L 512.0 808.0 L 471.0 814.0 L 470.0 819.0 L 475.0 820.0 L 523.0 812.0 L 560.0 800.0 L 782.0 800.0 L 798.0 789.0 L 820.0 722.0 L 817.0 692.0 L 809.0 681.0 L 791.0 671.0 L 732.0 669.0 L 720.0 659.0 L 754.0 605.0 L 777.0 553.0 L 792.0 497.0 L 798.0 444.0 L 791.0 444.0 L 778.0 525.0 L 751.0 595.0 L 713.0 653.0 L 696.0 645.0 L 729.0 598.0 L 749.0 556.0 L 767.0 492.0 L 772.0 435.0 L 848.0 422.0 L 797.0 408.0 L 790.0 348.0 L 769.0 283.0 L 739.0 228.0 Z M 372.0 663.0 L 375.0 667.0 L 373.0 669.0 L 370.0 665.0 Z M 387.0 658.0 L 389.0 656.0 L 393.0 659.0 L 401.0 662.0 L 403.0 665.0 L 401.0 667.0 L 398.0 666.0 L 390.0 661.0 Z M 393.0 647.0 L 403.0 650.0 L 412.0 651.0 L 414.0 653.0 L 410.0 656.0 L 402.0 654.0 L 393.0 650.0 Z M 79.0 780.0 L 109.0 657.0 L 123.0 644.0 L 243.0 644.0 L 256.0 657.0 L 255.0 675.0 L 407.0 675.0 L 422.0 657.0 L 467.0 655.0 L 474.0 647.0 L 482.0 644.0 L 672.0 644.0 L 709.0 657.0 L 731.0 675.0 L 784.0 675.0 L 794.0 678.0 L 809.0 690.0 L 815.0 703.0 L 815.0 720.0 L 797.0 780.0 L 788.0 791.0 L 779.0 795.0 L 95.0 795.0 L 88.0 792.0 Z M 428.0 636.0 L 424.0 639.0 L 419.0 640.0 L 394.0 637.0 L 420.0 634.0 Z M 437.0 624.0 L 421.0 626.0 L 416.0 628.0 L 411.0 628.0 L 398.0 631.0 L 397.0 632.0 L 395.0 629.0 L 410.0 624.0 L 425.0 621.0 Z M 291.0 511.0 L 293.0 513.0 L 293.0 515.0 L 290.0 517.0 L 288.0 514.0 Z M 432.0 500.0 L 432.0 504.0 L 431.0 506.0 L 428.0 506.0 L 428.0 503.0 Z M 295.0 496.0 L 297.0 498.0 L 297.0 500.0 L 295.0 502.0 L 293.0 500.0 L 293.0 498.0 Z M 441.0 495.0 L 442.0 499.0 L 437.0 511.0 L 434.0 516.0 L 430.0 517.0 L 430.0 514.0 L 439.0 499.0 L 439.0 497.0 Z M 303.0 484.0 L 305.0 487.0 L 303.0 489.0 L 301.0 486.0 Z M 453.0 485.0 L 448.0 504.0 L 442.0 517.0 L 435.0 527.0 L 430.0 529.0 L 431.0 522.0 L 439.0 512.0 L 446.0 498.0 L 450.0 484.0 Z M 312.0 469.0 L 315.0 470.0 L 315.0 472.0 L 312.0 474.0 L 310.0 471.0 Z M 330.0 446.0 L 333.0 443.0 L 336.0 444.0 L 335.0 447.0 Z M 658.0 436.0 L 660.0 438.0 L 659.0 540.0 L 656.0 558.0 L 646.0 581.0 L 630.0 599.0 L 612.0 610.0 L 595.0 614.0 L 582.0 614.0 L 573.0 612.0 L 572.0 615.0 L 559.0 610.0 L 543.0 595.0 L 537.0 584.0 L 534.0 572.0 L 535.0 546.0 L 542.0 526.0 L 559.0 499.0 L 564.0 498.0 L 557.0 518.0 L 560.0 532.0 L 559.0 535.0 L 556.0 532.0 L 554.0 524.0 L 552.0 525.0 L 546.0 539.0 L 542.0 556.0 L 542.0 568.0 L 544.0 577.0 L 552.0 592.0 L 563.0 601.0 L 570.0 604.0 L 583.0 606.0 L 604.0 604.0 L 621.0 596.0 L 632.0 586.0 L 640.0 575.0 L 649.0 551.0 L 651.0 536.0 L 652.0 438.0 L 654.0 436.0 Z M 347.0 430.0 L 349.0 432.0 L 349.0 434.0 L 347.0 436.0 L 345.0 436.0 L 343.0 433.0 Z M 288.0 432.0 L 282.0 439.0 L 276.0 440.0 L 276.0 437.0 L 279.0 434.0 L 286.0 430.0 Z M 648.0 427.0 L 651.0 424.0 L 658.0 424.0 L 662.0 425.0 L 666.0 429.0 L 663.0 429.0 L 655.0 432.0 L 650.0 432.0 L 648.0 430.0 Z M 648.0 420.0 L 648.0 417.0 L 651.0 414.0 L 663.0 414.0 L 666.0 418.0 L 661.0 421.0 L 656.0 422.0 L 650.0 422.0 Z M 299.0 416.0 L 295.0 421.0 L 285.0 423.0 L 283.0 421.0 L 284.0 418.0 L 286.0 416.0 L 289.0 415.0 L 297.0 414.0 Z M 375.0 413.0 L 377.0 415.0 L 374.0 417.0 L 372.0 415.0 Z M 648.0 410.0 L 648.0 407.0 L 652.0 404.0 L 666.0 405.0 L 665.0 408.0 L 660.0 411.0 L 650.0 412.0 Z M 389.0 403.0 L 391.0 405.0 L 388.0 407.0 L 386.0 405.0 Z M 310.0 403.0 L 306.0 407.0 L 293.0 408.0 L 291.0 406.0 L 295.0 402.0 L 300.0 401.0 L 308.0 401.0 Z M 302.0 393.0 L 305.0 389.0 L 323.0 391.0 L 319.0 395.0 Z M 313.0 381.0 L 317.0 376.0 L 332.0 377.0 L 336.0 380.0 L 333.0 383.0 L 315.0 383.0 Z M 670.0 374.0 L 674.0 379.0 L 675.0 383.0 L 674.0 390.0 L 666.0 399.0 L 660.0 403.0 L 658.0 401.0 L 658.0 398.0 L 663.0 394.0 L 658.0 394.0 L 656.0 393.0 L 652.0 388.0 L 651.0 382.0 L 653.0 378.0 L 659.0 374.0 L 665.0 375.0 L 670.0 381.0 L 670.0 379.0 L 668.0 376.0 Z M 665.0 366.0 L 671.0 371.0 L 667.0 372.0 L 659.0 371.0 L 654.0 373.0 L 649.0 379.0 L 648.0 382.0 L 648.0 388.0 L 649.0 391.0 L 651.0 394.0 L 656.0 398.0 L 656.0 400.0 L 653.0 402.0 L 646.0 396.0 L 643.0 390.0 L 642.0 386.0 L 643.0 379.0 L 645.0 374.0 L 652.0 367.0 L 655.0 366.0 Z M 325.0 371.0 L 331.0 365.0 L 341.0 366.0 L 350.0 369.0 L 349.0 372.0 L 347.0 373.0 L 341.0 373.0 L 336.0 371.0 L 333.0 373.0 L 327.0 373.0 Z M 342.0 360.0 L 345.0 356.0 L 357.0 360.0 L 361.0 360.0 L 365.0 363.0 L 363.0 365.0 L 359.0 366.0 L 355.0 364.0 L 346.0 363.0 Z M 555.0 346.0 L 557.0 348.0 L 544.0 353.0 L 526.0 369.0 L 508.0 401.0 L 516.0 392.0 L 553.0 382.0 L 563.0 384.0 L 556.0 391.0 L 535.0 401.0 L 546.0 399.0 L 519.0 422.0 L 499.0 434.0 L 481.0 440.0 L 457.0 440.0 L 448.0 437.0 L 426.0 420.0 L 418.0 402.0 L 423.0 419.0 L 435.0 433.0 L 449.0 441.0 L 471.0 446.0 L 383.0 498.0 L 356.0 524.0 L 340.0 550.0 L 335.0 566.0 L 334.0 586.0 L 341.0 610.0 L 358.0 632.0 L 386.0 649.0 L 380.0 653.0 L 365.0 652.0 L 332.0 633.0 L 307.0 605.0 L 299.0 588.0 L 294.0 564.0 L 294.0 543.0 L 299.0 517.0 L 314.0 485.0 L 333.0 460.0 L 331.0 457.0 L 345.0 444.0 L 383.0 419.0 L 412.0 405.0 L 426.0 371.0 L 429.0 372.0 L 424.0 387.0 L 439.0 375.0 L 445.0 373.0 L 447.0 376.0 L 455.0 369.0 L 477.0 361.0 L 478.0 354.0 L 489.0 346.0 L 497.0 347.0 L 507.0 355.0 L 527.0 350.0 L 529.0 352.0 L 523.0 358.0 L 540.0 347.0 Z M 448.0 348.0 L 435.0 350.0 L 414.0 356.0 L 388.0 366.0 L 372.0 374.0 L 342.0 394.0 L 317.0 417.0 L 300.0 438.0 L 288.0 458.0 L 280.0 476.0 L 272.0 506.0 L 271.0 515.0 L 272.0 538.0 L 269.0 541.0 L 267.0 525.0 L 268.0 501.0 L 272.0 481.0 L 277.0 466.0 L 287.0 445.0 L 297.0 429.0 L 316.0 406.0 L 338.0 386.0 L 356.0 374.0 L 373.0 365.0 L 417.0 350.0 L 443.0 345.0 Z M 212.0 211.0 L 264.0 164.0 L 320.0 132.0 L 379.0 113.0 L 427.0 106.0 L 490.0 108.0 L 548.0 121.0 L 601.0 144.0 L 635.0 166.0 L 648.0 179.0 L 663.0 201.0 L 674.0 227.0 L 680.0 254.0 L 681.0 282.0 L 675.0 317.0 L 660.0 360.0 L 646.0 370.0 L 641.0 380.0 L 643.0 395.0 L 649.0 403.0 L 646.0 406.0 L 645.0 431.0 L 650.0 437.0 L 650.0 525.0 L 645.0 559.0 L 635.0 579.0 L 615.0 597.0 L 599.0 603.0 L 582.0 603.0 L 568.0 598.0 L 554.0 581.0 L 550.0 557.0 L 557.0 538.0 L 568.0 547.0 L 564.0 531.0 L 564.0 508.0 L 569.0 488.0 L 544.0 519.0 L 532.0 554.0 L 534.0 581.0 L 542.0 598.0 L 552.0 609.0 L 572.0 620.0 L 602.0 622.0 L 626.0 613.0 L 645.0 597.0 L 660.0 573.0 L 667.0 548.0 L 669.0 436.0 L 674.0 431.0 L 674.0 408.0 L 671.0 402.0 L 678.0 394.0 L 680.0 380.0 L 676.0 371.0 L 665.0 361.0 L 678.0 327.0 L 686.0 287.0 L 684.0 245.0 L 676.0 216.0 L 666.0 196.0 L 668.0 194.0 L 706.0 238.0 L 737.0 291.0 L 755.0 340.0 L 766.0 404.0 L 765.0 464.0 L 752.0 528.0 L 729.0 585.0 L 689.0 643.0 L 671.0 638.0 L 482.0 638.0 L 471.0 642.0 L 462.0 650.0 L 432.0 649.0 L 422.0 652.0 L 420.0 650.0 L 463.0 612.0 L 424.0 613.0 L 379.0 626.0 L 364.0 618.0 L 354.0 606.0 L 347.0 586.0 L 348.0 568.0 L 353.0 558.0 L 370.0 569.0 L 360.0 560.0 L 364.0 546.0 L 365.0 557.0 L 372.0 563.0 L 373.0 546.0 L 368.0 531.0 L 395.0 506.0 L 425.0 487.0 L 427.0 539.0 L 449.0 509.0 L 457.0 472.0 L 517.0 434.0 L 568.0 386.0 L 567.0 379.0 L 550.0 380.0 L 548.0 377.0 L 559.0 355.0 L 560.0 347.0 L 557.0 343.0 L 512.0 336.0 L 438.0 341.0 L 377.0 360.0 L 339.0 353.0 L 335.0 360.0 L 324.0 363.0 L 320.0 371.0 L 310.0 375.0 L 303.0 387.0 L 296.0 389.0 L 294.0 399.0 L 282.0 412.0 L 270.0 446.0 L 270.0 454.0 L 277.0 454.0 L 267.0 480.0 L 262.0 508.0 L 267.0 556.0 L 280.0 587.0 L 293.0 606.0 L 318.0 630.0 L 356.0 650.0 L 366.0 667.0 L 364.0 669.0 L 263.0 669.0 L 258.0 648.0 L 243.0 638.0 L 203.0 638.0 L 172.0 594.0 L 144.0 528.0 L 131.0 464.0 L 130.0 406.0 L 137.0 357.0 L 154.0 303.0 L 179.0 255.0 Z" fill="#02234e" fill-rule="evenodd"/>
<path d="M 249.0 749.0 L 249.0 754.0 L 251.0 756.0 L 254.0 757.0 L 265.0 757.0 L 275.0 754.0 L 276.0 749.0 L 278.0 745.0 L 277.0 742.0 L 257.0 742.0 L 253.0 743.0 Z M 532.0 749.0 L 533.0 753.0 L 562.0 753.0 L 566.0 752.0 L 572.0 747.0 L 574.0 743.0 L 575.0 738.0 L 574.0 733.0 L 571.0 730.0 L 568.0 729.0 L 537.0 730.0 L 534.0 741.0 L 534.0 745.0 Z M 739.0 726.0 L 765.0 725.0 L 766.0 723.0 L 766.0 716.0 L 762.0 713.0 L 749.0 713.0 L 746.0 714.0 L 740.0 719.0 Z M 544.0 704.0 L 545.0 708.0 L 554.0 707.0 L 569.0 708.0 L 576.0 706.0 L 581.0 702.0 L 583.0 698.0 L 583.0 689.0 L 580.0 686.0 L 577.0 685.0 L 549.0 686.0 L 547.0 692.0 L 547.0 697.0 Z M 82.0 781.0 L 93.0 792.0 L 782.0 792.0 L 795.0 779.0 L 812.0 723.0 L 813.0 706.0 L 807.0 691.0 L 795.0 681.0 L 780.0 677.0 L 730.0 677.0 L 708.0 659.0 L 670.0 646.0 L 484.0 646.0 L 475.0 649.0 L 467.0 659.0 L 424.0 659.0 L 415.0 666.0 L 409.0 677.0 L 253.0 677.0 L 253.0 656.0 L 241.0 646.0 L 125.0 646.0 L 112.0 656.0 L 82.0 771.0 Z M 649.0 695.0 L 651.0 698.0 L 648.0 711.0 L 643.0 726.0 L 643.0 730.0 L 638.0 745.0 L 638.0 749.0 L 633.0 768.0 L 631.0 773.0 L 629.0 775.0 L 605.0 775.0 L 603.0 773.0 L 604.0 767.0 L 609.0 752.0 L 609.0 747.0 L 614.0 732.0 L 614.0 728.0 L 617.0 721.0 L 617.0 717.0 L 619.0 713.0 L 619.0 709.0 L 622.0 698.0 L 625.0 695.0 Z M 503.0 696.0 L 503.0 701.0 L 501.0 705.0 L 501.0 709.0 L 493.0 736.0 L 493.0 740.0 L 488.0 755.0 L 488.0 759.0 L 484.0 773.0 L 482.0 775.0 L 458.0 775.0 L 456.0 773.0 L 457.0 766.0 L 459.0 763.0 L 464.0 743.0 L 464.0 739.0 L 467.0 727.0 L 469.0 724.0 L 475.0 697.0 L 477.0 695.0 Z M 326.0 695.0 L 350.0 695.0 L 352.0 698.0 L 345.0 726.0 L 341.0 737.0 L 341.0 741.0 L 339.0 745.0 L 339.0 751.0 L 340.0 753.0 L 344.0 755.0 L 356.0 755.0 L 362.0 753.0 L 365.0 750.0 L 370.0 735.0 L 370.0 731.0 L 372.0 727.0 L 373.0 719.0 L 379.0 697.0 L 381.0 695.0 L 405.0 695.0 L 406.0 699.0 L 404.0 710.0 L 402.0 714.0 L 402.0 718.0 L 389.0 764.0 L 389.0 768.0 L 387.0 773.0 L 385.0 775.0 L 363.0 774.0 L 363.0 769.0 L 361.0 769.0 L 357.0 772.0 L 349.0 775.0 L 343.0 776.0 L 330.0 776.0 L 319.0 773.0 L 312.0 766.0 L 310.0 760.0 L 310.0 752.0 L 312.0 743.0 L 314.0 739.0 L 314.0 735.0 L 317.0 723.0 L 322.0 708.0 L 322.0 704.0 L 324.0 697.0 Z M 791.0 702.0 L 794.0 709.0 L 793.0 723.0 L 791.0 730.0 L 788.0 736.0 L 783.0 741.0 L 779.0 743.0 L 774.0 744.0 L 733.0 745.0 L 733.0 752.0 L 735.0 754.0 L 740.0 756.0 L 765.0 756.0 L 773.0 754.0 L 779.0 754.0 L 781.0 757.0 L 777.0 771.0 L 773.0 774.0 L 752.0 776.0 L 730.0 776.0 L 715.0 773.0 L 708.0 768.0 L 704.0 761.0 L 704.0 747.0 L 713.0 717.0 L 718.0 708.0 L 725.0 701.0 L 730.0 698.0 L 740.0 695.0 L 747.0 694.0 L 772.0 694.0 L 782.0 696.0 Z M 243.0 696.0 L 262.0 694.0 L 289.0 694.0 L 301.0 696.0 L 305.0 698.0 L 310.0 703.0 L 312.0 707.0 L 312.0 720.0 L 308.0 732.0 L 308.0 736.0 L 306.0 740.0 L 305.0 748.0 L 303.0 752.0 L 303.0 756.0 L 300.0 764.0 L 300.0 768.0 L 298.0 773.0 L 296.0 775.0 L 276.0 775.0 L 274.0 773.0 L 274.0 769.0 L 271.0 770.0 L 267.0 773.0 L 260.0 775.0 L 253.0 776.0 L 239.0 776.0 L 228.0 773.0 L 222.0 767.0 L 221.0 764.0 L 221.0 753.0 L 223.0 745.0 L 227.0 737.0 L 233.0 731.0 L 245.0 726.0 L 283.0 724.0 L 284.0 722.0 L 284.0 717.0 L 282.0 715.0 L 279.0 714.0 L 253.0 714.0 L 237.0 716.0 L 237.0 711.0 L 240.0 700.0 Z M 674.0 673.0 L 680.0 674.0 L 697.0 673.0 L 699.0 675.0 L 699.0 680.0 L 695.0 692.0 L 695.0 695.0 L 712.0 695.0 L 714.0 697.0 L 714.0 699.0 L 712.0 703.0 L 712.0 707.0 L 710.0 713.0 L 708.0 715.0 L 689.0 716.0 L 687.0 722.0 L 687.0 726.0 L 681.0 745.0 L 681.0 753.0 L 686.0 755.0 L 697.0 754.0 L 699.0 756.0 L 696.0 769.0 L 692.0 775.0 L 681.0 776.0 L 670.0 776.0 L 663.0 775.0 L 656.0 772.0 L 652.0 768.0 L 649.0 761.0 L 649.0 759.0 L 651.0 756.0 L 652.0 748.0 L 655.0 741.0 L 655.0 737.0 L 657.0 733.0 L 661.0 716.0 L 653.0 715.0 L 651.0 712.0 L 655.0 697.0 L 657.0 695.0 L 667.0 694.0 L 670.0 684.0 L 671.0 676.0 Z M 453.0 674.0 L 455.0 676.0 L 453.0 680.0 L 453.0 684.0 L 450.0 691.0 L 451.0 695.0 L 467.0 695.0 L 469.0 698.0 L 465.0 713.0 L 463.0 715.0 L 444.0 716.0 L 440.0 730.0 L 440.0 734.0 L 438.0 738.0 L 435.0 752.0 L 437.0 754.0 L 440.0 755.0 L 451.0 754.0 L 453.0 756.0 L 453.0 760.0 L 450.0 767.0 L 450.0 771.0 L 447.0 775.0 L 436.0 776.0 L 425.0 776.0 L 413.0 773.0 L 406.0 765.0 L 406.0 755.0 L 416.0 719.0 L 416.0 715.0 L 409.0 715.0 L 407.0 713.0 L 410.0 699.0 L 413.0 695.0 L 422.0 694.0 L 426.0 677.0 L 429.0 674.0 L 434.0 673.0 Z M 633.0 663.0 L 657.0 663.0 L 659.0 665.0 L 658.0 672.0 L 656.0 676.0 L 655.0 684.0 L 652.0 687.0 L 627.0 687.0 L 625.0 685.0 L 627.0 681.0 L 629.0 668.0 Z M 527.0 664.0 L 532.0 663.0 L 560.0 664.0 L 585.0 663.0 L 601.0 665.0 L 607.0 668.0 L 613.0 675.0 L 614.0 678.0 L 614.0 690.0 L 611.0 700.0 L 607.0 707.0 L 602.0 712.0 L 594.0 716.0 L 593.0 718.0 L 596.0 719.0 L 602.0 725.0 L 604.0 732.0 L 603.0 746.0 L 600.0 754.0 L 595.0 761.0 L 589.0 767.0 L 584.0 770.0 L 576.0 773.0 L 565.0 775.0 L 499.0 775.0 L 497.0 773.0 L 497.0 771.0 L 500.0 764.0 L 500.0 759.0 L 505.0 744.0 L 505.0 740.0 L 510.0 725.0 L 510.0 721.0 L 515.0 706.0 L 515.0 702.0 L 517.0 698.0 L 518.0 690.0 L 523.0 671.0 L 525.0 666.0 Z M 485.0 664.0 L 487.0 663.0 L 510.0 663.0 L 512.0 666.0 L 510.0 671.0 L 507.0 685.0 L 505.0 687.0 L 480.0 687.0 L 478.0 684.0 L 479.0 679.0 L 482.0 672.0 L 482.0 668.0 Z M 134.0 663.0 L 162.0 663.0 L 164.0 665.0 L 189.0 728.0 L 191.0 727.0 L 192.0 719.0 L 200.0 692.0 L 206.0 665.0 L 208.0 663.0 L 233.0 663.0 L 235.0 665.0 L 221.0 723.0 L 211.0 757.0 L 208.0 773.0 L 206.0 775.0 L 180.0 775.0 L 177.0 772.0 L 172.0 757.0 L 164.0 740.0 L 164.0 737.0 L 162.0 735.0 L 154.0 715.0 L 154.0 712.0 L 150.0 706.0 L 132.0 773.0 L 130.0 775.0 L 106.0 775.0 L 104.0 773.0 L 104.0 769.0 L 131.0 670.0 L 131.0 666.0 Z M 351.0 566.0 L 350.0 572.0 L 350.0 588.0 L 353.0 599.0 L 362.0 613.0 L 374.0 622.0 L 384.0 623.0 L 408.0 614.0 L 436.0 609.0 L 464.0 609.0 L 466.0 610.0 L 467.0 612.0 L 462.0 617.0 L 441.0 633.0 L 426.0 648.0 L 431.0 647.0 L 434.0 645.0 L 442.0 637.0 L 477.0 609.0 L 477.0 607.0 L 469.0 607.0 L 459.0 605.0 L 432.0 606.0 L 407.0 611.0 L 391.0 616.0 L 383.0 620.0 L 379.0 620.0 L 370.0 615.0 L 362.0 607.0 L 357.0 599.0 L 353.0 587.0 L 353.0 573.0 L 354.0 569.0 L 357.0 567.0 L 361.0 570.0 L 364.0 571.0 L 366.0 570.0 L 364.0 570.0 L 353.0 562.0 Z M 489.0 472.0 L 487.0 472.0 L 481.0 476.0 L 476.0 478.0 L 474.0 481.0 L 468.0 516.0 L 466.0 521.0 L 467.0 526.0 L 472.0 525.0 L 475.0 523.0 L 481.0 522.0 L 498.0 515.0 L 519.0 504.0 L 520.0 502.0 Z M 361.0 448.0 L 355.0 451.0 L 355.0 453.0 L 360.0 454.0 L 359.0 451.0 Z M 655.0 439.0 L 653.0 543.0 L 651.0 554.0 L 645.0 571.0 L 635.0 586.0 L 626.0 595.0 L 619.0 600.0 L 602.0 607.0 L 578.0 608.0 L 566.0 605.0 L 557.0 600.0 L 547.0 589.0 L 541.0 576.0 L 540.0 553.0 L 543.0 540.0 L 553.0 518.0 L 556.0 515.0 L 558.0 505.0 L 549.0 518.0 L 539.0 541.0 L 537.0 549.0 L 536.0 567.0 L 539.0 582.0 L 544.0 592.0 L 553.0 603.0 L 560.0 608.0 L 566.0 607.0 L 569.0 609.0 L 588.0 612.0 L 608.0 609.0 L 619.0 604.0 L 629.0 597.0 L 645.0 578.0 L 654.0 555.0 L 654.0 546.0 L 656.0 543.0 L 657.0 534.0 L 657.0 441.0 Z M 653.0 407.0 L 654.0 409.0 L 656.0 409.0 L 658.0 407.0 L 656.0 406.0 Z M 416.0 406.0 L 404.0 410.0 L 389.0 418.0 L 341.0 450.0 L 335.0 457.0 L 337.0 460.0 L 326.0 472.0 L 313.0 491.0 L 303.0 513.0 L 298.0 532.0 L 298.0 553.0 L 296.0 554.0 L 296.0 558.0 L 298.0 560.0 L 298.0 575.0 L 300.0 584.0 L 308.0 602.0 L 319.0 618.0 L 334.0 632.0 L 354.0 645.0 L 366.0 650.0 L 382.0 649.0 L 366.0 641.0 L 351.0 628.0 L 340.0 613.0 L 334.0 599.0 L 332.0 590.0 L 332.0 568.0 L 337.0 551.0 L 351.0 527.0 L 362.0 514.0 L 377.0 500.0 L 402.0 482.0 L 465.0 447.0 L 447.0 443.0 L 434.0 435.0 L 421.0 420.0 Z M 303.0 530.0 L 306.0 530.0 L 308.0 533.0 L 306.0 538.0 L 305.0 544.0 L 305.0 572.0 L 311.0 594.0 L 318.0 608.0 L 322.0 613.0 L 322.0 617.0 L 318.0 613.0 L 306.0 593.0 L 299.0 569.0 L 298.0 560.0 L 299.0 539.0 L 300.0 534.0 Z M 346.0 461.0 L 348.0 463.0 L 347.0 465.0 L 332.0 481.0 L 319.0 501.0 L 310.0 522.0 L 310.0 525.0 L 308.0 529.0 L 304.0 529.0 L 302.0 527.0 L 302.0 525.0 L 304.0 518.0 L 306.0 515.0 L 306.0 512.0 L 315.0 493.0 L 319.0 488.0 L 319.0 486.0 L 331.0 470.0 L 342.0 460.0 Z M 421.0 433.0 L 418.0 437.0 L 412.0 451.0 L 405.0 458.0 L 396.0 463.0 L 387.0 465.0 L 376.0 465.0 L 365.0 463.0 L 347.0 458.0 L 342.0 458.0 L 340.0 455.0 L 354.0 444.0 L 356.0 444.0 L 363.0 439.0 L 384.0 431.0 L 394.0 429.0 L 410.0 428.0 L 419.0 430.0 Z M 415.0 411.0 L 415.0 413.0 L 412.0 416.0 L 401.0 422.0 L 399.0 422.0 L 396.0 425.0 L 391.0 427.0 L 384.0 428.0 L 381.0 427.0 L 387.0 422.0 L 401.0 414.0 L 413.0 409.0 Z M 656.0 378.0 L 654.0 381.0 L 654.0 387.0 L 655.0 389.0 L 658.0 391.0 L 664.0 391.0 L 667.0 387.0 L 667.0 381.0 L 666.0 379.0 L 663.0 377.0 L 658.0 377.0 Z M 602.0 368.0 L 602.0 370.0 L 605.0 375.0 L 609.0 385.0 L 609.0 381.0 L 606.0 377.0 L 605.0 372.0 Z M 395.0 360.0 L 393.0 361.0 L 389.0 361.0 L 387.0 363.0 L 384.0 363.0 L 366.0 371.0 L 349.0 381.0 L 327.0 398.0 L 317.0 408.0 L 305.0 422.0 L 298.0 432.0 L 295.0 438.0 L 292.0 441.0 L 282.0 460.0 L 280.0 465.0 L 280.0 468.0 L 278.0 470.0 L 278.0 473.0 L 277.0 474.0 L 278.0 476.0 L 278.0 473.0 L 280.0 471.0 L 280.0 469.0 L 282.0 467.0 L 283.0 463.0 L 286.0 459.0 L 287.0 455.0 L 296.0 440.0 L 315.0 416.0 L 328.0 403.0 L 341.0 392.0 L 364.0 376.0 L 388.0 363.0 L 391.0 363.0 Z M 547.0 349.0 L 542.0 349.0 L 537.0 351.0 L 524.0 361.0 L 518.0 363.0 L 522.0 354.0 L 503.0 357.0 L 503.0 364.0 L 501.0 368.0 L 493.0 373.0 L 485.0 371.0 L 480.0 364.0 L 481.0 356.0 L 486.0 351.0 L 496.0 350.0 L 487.0 349.0 L 482.0 353.0 L 479.0 358.0 L 479.0 362.0 L 477.0 364.0 L 467.0 366.0 L 456.0 371.0 L 451.0 375.0 L 447.0 382.0 L 444.0 382.0 L 444.0 377.0 L 441.0 377.0 L 429.0 385.0 L 423.0 392.0 L 421.0 391.0 L 420.0 399.0 L 422.0 407.0 L 427.0 417.0 L 440.0 430.0 L 447.0 434.0 L 460.0 438.0 L 483.0 437.0 L 502.0 430.0 L 517.0 421.0 L 537.0 403.0 L 522.0 409.0 L 520.0 407.0 L 522.0 405.0 L 544.0 393.0 L 555.0 389.0 L 559.0 384.0 L 539.0 387.0 L 522.0 392.0 L 516.0 395.0 L 514.0 400.0 L 506.0 405.0 L 499.0 403.0 L 495.0 397.0 L 497.0 388.0 L 502.0 380.0 L 509.0 377.0 L 506.0 380.0 L 501.0 390.0 L 501.0 397.0 L 503.0 399.0 L 507.0 399.0 L 510.0 396.0 L 515.0 382.0 L 524.0 368.0 L 537.0 355.0 Z M 436.0 420.0 L 438.0 418.0 L 441.0 421.0 L 453.0 426.0 L 465.0 426.0 L 462.0 422.0 L 460.0 422.0 L 456.0 419.0 L 449.0 411.0 L 446.0 405.0 L 444.0 396.0 L 446.0 391.0 L 448.0 393.0 L 448.0 397.0 L 453.0 407.0 L 463.0 416.0 L 473.0 419.0 L 483.0 419.0 L 494.0 416.0 L 499.0 413.0 L 501.0 415.0 L 491.0 422.0 L 483.0 425.0 L 474.0 425.0 L 469.0 429.0 L 463.0 431.0 L 454.0 431.0 L 450.0 430.0 L 441.0 425.0 Z M 582.0 327.0 L 578.0 333.0 L 582.0 337.0 L 588.0 346.0 L 590.0 347.0 L 588.0 343.0 L 583.0 338.0 Z M 315.0 327.0 L 317.0 330.0 L 316.0 336.0 L 319.0 334.0 L 319.0 331.0 L 317.0 328.0 Z M 641.0 321.0 L 643.0 325.0 L 647.0 326.0 L 644.0 322.0 Z M 555.0 310.0 L 556.0 312.0 L 563.0 317.0 L 566.0 315.0 L 563.0 315.0 L 559.0 310.0 Z M 359.0 298.0 L 355.0 299.0 L 350.0 304.0 L 343.0 308.0 L 339.0 312.0 L 330.0 313.0 L 328.0 315.0 L 334.0 318.0 L 336.0 317.0 L 344.0 309.0 Z M 606.0 296.0 L 603.0 302.0 L 606.0 301.0 L 607.0 298.0 Z M 370.0 292.0 L 368.0 292.0 L 364.0 294.0 L 363.0 296.0 L 366.0 295.0 Z M 394.0 282.0 L 388.0 283.0 L 380.0 287.0 L 378.0 287.0 L 376.0 289.0 L 378.0 289.0 L 381.0 287.0 Z M 616.0 280.0 L 613.0 280.0 L 611.0 282.0 L 612.0 285.0 L 615.0 284.0 Z M 584.0 280.0 L 586.0 282.0 L 589.0 283.0 L 591.0 281.0 L 588.0 281.0 L 586.0 278.0 Z M 606.0 227.0 L 602.0 230.0 L 601.0 235.0 L 603.0 239.0 L 605.0 240.0 L 611.0 240.0 L 614.0 237.0 L 613.0 229.0 L 609.0 227.0 Z M 514.0 221.0 L 514.0 224.0 L 511.0 226.0 L 508.0 223.0 L 508.0 218.0 L 506.0 218.0 L 503.0 221.0 L 500.0 222.0 L 504.0 225.0 L 506.0 228.0 L 505.0 231.0 L 508.0 229.0 L 510.0 230.0 L 514.0 227.0 L 515.0 225.0 Z M 482.0 216.0 L 479.0 219.0 L 474.0 219.0 L 476.0 221.0 L 479.0 221.0 L 482.0 218.0 Z M 275.0 209.0 L 270.0 213.0 L 270.0 217.0 L 274.0 221.0 L 278.0 221.0 L 282.0 218.0 L 282.0 213.0 L 280.0 210.0 Z M 436.0 208.0 L 434.0 208.0 L 432.0 210.0 L 435.0 214.0 L 435.0 217.0 Z M 201.0 191.0 L 194.0 198.0 L 184.0 210.0 L 181.0 215.0 Z M 453.0 163.0 L 452.0 166.0 L 453.0 172.0 L 455.0 177.0 L 455.0 182.0 L 457.0 186.0 L 457.0 180.0 L 455.0 167.0 Z M 448.0 147.0 L 447.0 151.0 L 449.0 151.0 L 454.0 155.0 L 457.0 154.0 L 455.0 154.0 L 452.0 151.0 L 450.0 147.0 Z M 453.0 126.0 L 449.0 129.0 L 449.0 131.0 L 453.0 130.0 Z M 553.0 125.0 L 501.0 112.0 L 436.0 108.0 L 372.0 117.0 L 319.0 135.0 L 262.0 168.0 L 214.0 212.0 L 175.0 266.0 L 150.0 320.0 L 140.0 354.0 L 132.0 408.0 L 133.0 459.0 L 136.0 482.0 L 140.0 487.0 L 134.0 443.0 L 136.0 391.0 L 145.0 344.0 L 164.0 291.0 L 193.0 242.0 L 221.0 208.0 L 257.0 175.0 L 291.0 152.0 L 335.0 131.0 L 390.0 116.0 L 432.0 111.0 L 486.0 113.0 L 536.0 123.0 L 576.0 137.0 L 627.0 167.0 L 651.0 194.0 L 669.0 234.0 L 674.0 284.0 L 669.0 313.0 L 657.0 349.0 L 653.0 351.0 L 653.0 357.0 L 639.0 368.0 L 635.0 377.0 L 634.0 389.0 L 640.0 402.0 L 640.0 414.0 L 637.0 417.0 L 599.0 413.0 L 559.0 404.0 L 567.0 400.0 L 604.0 405.0 L 597.0 381.0 L 574.0 342.0 L 567.0 346.0 L 557.0 336.0 L 576.0 317.0 L 548.0 335.0 L 542.0 334.0 L 554.0 324.0 L 543.0 313.0 L 510.0 295.0 L 479.0 287.0 L 463.0 217.0 L 466.0 211.0 L 461.0 210.0 L 483.0 322.0 L 482.0 331.0 L 447.0 332.0 L 446.0 190.0 L 419.0 339.0 L 386.0 351.0 L 383.0 349.0 L 413.0 332.0 L 432.0 229.0 L 423.0 273.0 L 417.0 277.0 L 422.0 279.0 L 421.0 284.0 L 376.0 300.0 L 342.0 323.0 L 379.0 352.0 L 375.0 354.0 L 339.0 346.0 L 333.0 348.0 L 325.0 341.0 L 303.0 370.0 L 301.0 379.0 L 290.0 387.0 L 289.0 395.0 L 278.0 404.0 L 277.0 415.0 L 267.0 431.0 L 268.0 438.0 L 263.0 444.0 L 261.0 456.0 L 266.0 463.0 L 257.0 499.0 L 256.0 524.0 L 262.0 560.0 L 277.0 594.0 L 290.0 612.0 L 315.0 635.0 L 352.0 655.0 L 360.0 667.0 L 362.0 664.0 L 354.0 652.0 L 320.0 634.0 L 287.0 602.0 L 269.0 569.0 L 260.0 531.0 L 261.0 496.0 L 273.0 457.0 L 266.0 454.0 L 267.0 446.0 L 271.0 440.0 L 271.0 431.0 L 280.0 416.0 L 279.0 411.0 L 292.0 398.0 L 293.0 389.0 L 306.0 381.0 L 308.0 373.0 L 320.0 368.0 L 323.0 359.0 L 334.0 358.0 L 339.0 350.0 L 379.0 357.0 L 430.0 340.0 L 472.0 334.0 L 520.0 334.0 L 557.0 340.0 L 562.0 345.0 L 562.0 354.0 L 552.0 377.0 L 568.0 377.0 L 571.0 385.0 L 523.0 432.0 L 461.0 471.0 L 450.0 512.0 L 427.0 543.0 L 423.0 492.0 L 386.0 516.0 L 371.0 531.0 L 376.0 549.0 L 374.0 568.0 L 378.0 560.0 L 375.0 532.0 L 384.0 523.0 L 396.0 526.0 L 388.0 520.0 L 396.0 514.0 L 420.0 523.0 L 422.0 551.0 L 445.0 528.0 L 454.0 512.0 L 463.0 475.0 L 496.0 455.0 L 498.0 458.0 L 494.0 466.0 L 529.0 497.0 L 548.0 468.0 L 552.0 450.0 L 511.0 455.0 L 500.0 453.0 L 537.0 424.0 L 638.0 424.0 L 643.0 440.0 L 643.0 537.0 L 638.0 560.0 L 624.0 582.0 L 607.0 594.0 L 585.0 597.0 L 569.0 590.0 L 557.0 570.0 L 557.0 552.0 L 560.0 550.0 L 579.0 560.0 L 571.0 535.0 L 571.0 504.0 L 578.0 480.0 L 600.0 471.0 L 604.0 455.0 L 602.0 445.0 L 568.0 448.0 L 563.0 451.0 L 559.0 468.0 L 548.0 490.0 L 557.0 486.0 L 560.0 488.0 L 539.0 515.0 L 526.0 551.0 L 526.0 576.0 L 530.0 589.0 L 548.0 614.0 L 560.0 622.0 L 579.0 628.0 L 595.0 629.0 L 620.0 623.0 L 642.0 609.0 L 657.0 592.0 L 667.0 572.0 L 673.0 550.0 L 675.0 440.0 L 680.0 433.0 L 679.0 427.0 L 683.0 424.0 L 679.0 421.0 L 680.0 402.0 L 687.0 388.0 L 685.0 372.0 L 673.0 358.0 L 686.0 324.0 L 693.0 286.0 L 693.0 261.0 L 687.0 222.0 L 721.0 271.0 L 737.0 304.0 L 750.0 342.0 L 761.0 407.0 L 760.0 480.0 L 764.0 409.0 L 759.0 367.0 L 749.0 328.0 L 721.0 265.0 L 695.0 227.0 L 674.0 205.0 L 686.0 242.0 L 689.0 280.0 L 684.0 314.0 L 668.0 360.0 L 681.0 375.0 L 682.0 390.0 L 674.0 403.0 L 676.0 433.0 L 671.0 438.0 L 671.0 536.0 L 663.0 572.0 L 652.0 592.0 L 637.0 608.0 L 617.0 620.0 L 598.0 625.0 L 565.0 620.0 L 552.0 612.0 L 536.0 593.0 L 529.0 568.0 L 533.0 539.0 L 546.0 511.0 L 571.0 482.0 L 573.0 484.0 L 567.0 504.0 L 566.0 525.0 L 572.0 551.0 L 570.0 553.0 L 556.0 543.0 L 553.0 554.0 L 554.0 574.0 L 563.0 590.0 L 585.0 601.0 L 606.0 599.0 L 624.0 588.0 L 640.0 565.0 L 647.0 535.0 L 647.0 437.0 L 643.0 433.0 L 643.0 407.0 L 646.0 402.0 L 639.0 391.0 L 639.0 378.0 L 646.0 367.0 L 656.0 362.0 L 670.0 326.0 L 678.0 289.0 L 678.0 257.0 L 673.0 232.0 L 665.0 210.0 L 650.0 185.0 L 634.0 168.0 L 612.0 153.0 Z" fill="#fcfcfc" fill-rule="evenodd"/>
<path d="M 642.0 440.0 L 640.0 440.0 L 639.0 441.0 L 636.0 440.0 L 619.0 442.0 L 613.0 451.0 L 613.0 461.0 L 611.0 469.0 L 635.0 464.0 L 642.0 465.0 Z M 751.0 378.0 L 748.0 380.0 L 736.0 379.0 L 736.0 381.0 L 739.0 384.0 L 737.0 386.0 L 733.0 387.0 L 731.0 390.0 L 723.0 393.0 L 721.0 390.0 L 706.0 389.0 L 703.0 391.0 L 701.0 391.0 L 698.0 387.0 L 696.0 386.0 L 693.0 389.0 L 687.0 391.0 L 685.0 397.0 L 681.0 402.0 L 682.0 410.0 L 680.0 413.0 L 680.0 416.0 L 682.0 418.0 L 687.0 418.0 L 693.0 421.0 L 698.0 421.0 L 703.0 423.0 L 708.0 423.0 L 719.0 426.0 L 719.0 429.0 L 713.0 429.0 L 701.0 432.0 L 694.0 432.0 L 681.0 435.0 L 676.0 440.0 L 676.0 453.0 L 678.0 462.0 L 690.0 462.0 L 721.0 467.0 L 757.0 479.0 L 760.0 452.0 L 760.0 407.0 L 759.0 394.0 L 758.0 393.0 L 758.0 388.0 L 752.0 390.0 L 748.0 390.0 L 746.0 389.0 L 742.0 384.0 L 747.0 383.0 L 750.0 381.0 Z M 727.0 413.0 L 743.0 413.0 L 745.0 415.0 L 746.0 418.0 L 743.0 421.0 L 733.0 422.0 L 737.0 424.0 L 740.0 422.0 L 743.0 425.0 L 743.0 428.0 L 741.0 430.0 L 735.0 430.0 L 736.0 434.0 L 743.0 434.0 L 745.0 436.0 L 745.0 439.0 L 743.0 441.0 L 727.0 441.0 L 725.0 439.0 L 725.0 415.0 Z M 717.0 379.0 L 719.0 382.0 L 721.0 381.0 L 723.0 378.0 Z M 600.0 302.0 L 598.0 305.0 L 598.0 308.0 L 592.0 313.0 L 589.0 320.0 L 584.0 324.0 L 583.0 328.0 L 584.0 338.0 L 591.0 346.0 L 591.0 350.0 L 594.0 355.0 L 600.0 361.0 L 600.0 365.0 L 606.0 372.0 L 607.0 377.0 L 610.0 381.0 L 610.0 389.0 L 613.0 393.0 L 613.0 402.0 L 614.0 403.0 L 614.0 406.0 L 618.0 407.0 L 620.0 409.0 L 637.0 412.0 L 639.0 402.0 L 634.0 393.0 L 633.0 389.0 L 633.0 382.0 L 635.0 374.0 L 638.0 368.0 L 646.0 360.0 L 650.0 359.0 L 652.0 356.0 L 649.0 354.0 L 648.0 352.0 L 648.0 350.0 L 649.0 349.0 L 648.0 344.0 L 642.0 337.0 L 637.0 337.0 L 635.0 335.0 L 631.0 336.0 L 629.0 338.0 L 629.0 340.0 L 626.0 343.0 L 623.0 339.0 L 626.0 335.0 L 627.0 332.0 L 625.0 330.0 L 623.0 330.0 L 618.0 323.0 L 618.0 321.0 L 620.0 319.0 L 619.0 314.0 L 615.0 314.0 L 613.0 312.0 L 613.0 305.0 L 609.0 302.0 L 605.0 303.0 L 604.0 306.0 L 602.0 303.0 Z M 617.0 380.0 L 619.0 382.0 L 619.0 389.0 L 617.0 391.0 L 615.0 389.0 L 615.0 386.0 L 614.0 385.0 L 614.0 383.0 Z M 621.0 370.0 L 621.0 374.0 L 618.0 378.0 L 616.0 376.0 L 616.0 372.0 L 617.0 370.0 Z M 623.0 357.0 L 625.0 359.0 L 625.0 361.0 L 624.0 362.0 L 624.0 365.0 L 621.0 367.0 L 619.0 365.0 L 619.0 362.0 L 620.0 359.0 Z M 625.0 344.0 L 627.0 347.0 L 626.0 354.0 L 624.0 356.0 L 622.0 354.0 L 622.0 346.0 Z M 164.0 294.0 L 146.0 344.0 L 137.0 391.0 L 135.0 443.0 L 141.0 488.0 L 169.0 475.0 L 200.0 468.0 L 229.0 467.0 L 251.0 470.0 L 261.0 474.0 L 265.0 461.0 L 262.0 462.0 L 260.0 460.0 L 262.0 443.0 L 188.0 430.0 L 181.0 427.0 L 183.0 425.0 L 209.0 421.0 L 216.0 417.0 L 226.0 418.0 L 274.0 409.0 L 284.0 397.0 L 293.0 371.0 L 306.0 351.0 L 308.0 344.0 L 314.0 339.0 L 316.0 330.0 L 312.0 323.0 L 305.0 327.0 L 291.0 330.0 L 289.0 333.0 L 291.0 340.0 L 298.0 330.0 L 310.0 326.0 L 312.0 328.0 L 312.0 332.0 L 308.0 337.0 L 293.0 342.0 L 291.0 351.0 L 286.0 349.0 L 283.0 342.0 L 285.0 350.0 L 282.0 354.0 L 275.0 344.0 L 275.0 337.0 L 269.0 325.0 L 265.0 323.0 L 261.0 333.0 L 265.0 336.0 L 271.0 333.0 L 273.0 335.0 L 268.0 342.0 L 254.0 352.0 L 244.0 350.0 L 238.0 355.0 L 231.0 357.0 L 220.0 345.0 L 217.0 344.0 L 211.0 347.0 L 209.0 344.0 L 213.0 340.0 L 202.0 330.0 L 198.0 330.0 L 195.0 327.0 L 192.0 316.0 L 190.0 314.0 L 183.0 314.0 L 175.0 307.0 L 174.0 298.0 L 171.0 294.0 Z M 146.0 413.0 L 150.0 413.0 L 152.0 415.0 L 153.0 421.0 L 155.0 424.0 L 155.0 422.0 L 157.0 419.0 L 157.0 416.0 L 161.0 413.0 L 163.0 414.0 L 166.0 417.0 L 167.0 423.0 L 169.0 425.0 L 169.0 421.0 L 171.0 415.0 L 173.0 413.0 L 177.0 413.0 L 179.0 416.0 L 177.0 421.0 L 173.0 439.0 L 171.0 441.0 L 166.0 441.0 L 163.0 438.0 L 163.0 433.0 L 161.0 430.0 L 159.0 438.0 L 156.0 441.0 L 152.0 441.0 L 150.0 439.0 L 144.0 418.0 L 144.0 415.0 Z M 202.0 405.0 L 204.0 403.0 L 207.0 403.0 L 211.0 407.0 L 214.0 407.0 L 221.0 412.0 L 219.0 414.0 L 216.0 412.0 L 212.0 412.0 L 209.0 409.0 L 205.0 408.0 Z M 190.0 393.0 L 193.0 391.0 L 201.0 400.0 L 200.0 403.0 L 197.0 403.0 L 191.0 397.0 Z M 188.0 376.0 L 191.0 379.0 L 190.0 389.0 L 188.0 389.0 L 186.0 387.0 L 185.0 383.0 L 185.0 378.0 Z M 193.0 360.0 L 195.0 362.0 L 195.0 364.0 L 193.0 366.0 L 192.0 370.0 L 189.0 373.0 L 187.0 371.0 L 187.0 367.0 L 189.0 363.0 Z M 297.0 352.0 L 299.0 354.0 L 296.0 357.0 L 293.0 358.0 L 291.0 356.0 L 294.0 353.0 Z M 201.0 353.0 L 201.0 355.0 L 196.0 359.0 L 194.0 356.0 L 198.0 352.0 Z M 204.0 346.0 L 206.0 346.0 L 208.0 349.0 L 205.0 352.0 L 203.0 352.0 L 201.0 349.0 Z M 620.0 289.0 L 621.0 294.0 L 628.0 297.0 L 623.0 290.0 Z M 640.0 277.0 L 637.0 281.0 L 638.0 289.0 L 637.0 297.0 L 639.0 301.0 L 644.0 303.0 L 646.0 293.0 L 646.0 285.0 L 643.0 277.0 Z M 614.0 262.0 L 614.0 264.0 L 616.0 268.0 L 622.0 274.0 L 621.0 279.0 L 624.0 280.0 L 626.0 282.0 L 626.0 287.0 L 631.0 293.0 L 633.0 293.0 L 633.0 290.0 L 630.0 286.0 L 627.0 264.0 L 624.0 264.0 L 621.0 261.0 Z M 452.0 130.0 L 450.0 132.0 L 450.0 134.0 L 453.0 137.0 L 454.0 132.0 Z M 378.0 121.0 L 384.0 130.0 L 392.0 128.0 L 395.0 131.0 L 397.0 142.0 L 406.0 141.0 L 417.0 160.0 L 423.0 164.0 L 415.0 166.0 L 409.0 172.0 L 425.0 179.0 L 417.0 201.0 L 417.0 206.0 L 421.0 209.0 L 415.0 213.0 L 411.0 229.0 L 404.0 232.0 L 408.0 239.0 L 397.0 250.0 L 392.0 251.0 L 386.0 245.0 L 380.0 258.0 L 369.0 259.0 L 368.0 281.0 L 363.0 288.0 L 341.0 306.0 L 328.0 307.0 L 326.0 313.0 L 339.0 311.0 L 355.0 298.0 L 373.0 291.0 L 378.0 286.0 L 422.0 273.0 L 434.0 214.0 L 430.0 212.0 L 427.0 215.0 L 421.0 209.0 L 425.0 206.0 L 437.0 206.0 L 445.0 171.0 L 443.0 164.0 L 449.0 157.0 L 456.0 167.0 L 461.0 208.0 L 469.0 209.0 L 471.0 212.0 L 464.0 218.0 L 478.0 276.0 L 508.0 282.0 L 568.0 314.0 L 578.0 305.0 L 584.0 305.0 L 589.0 299.0 L 594.0 299.0 L 599.0 292.0 L 607.0 290.0 L 617.0 298.0 L 609.0 290.0 L 609.0 282.0 L 603.0 282.0 L 601.0 285.0 L 599.0 278.0 L 605.0 275.0 L 605.0 272.0 L 599.0 264.0 L 580.0 257.0 L 570.0 249.0 L 561.0 248.0 L 561.0 241.0 L 554.0 234.0 L 545.0 232.0 L 542.0 229.0 L 543.0 223.0 L 536.0 219.0 L 524.0 204.0 L 524.0 199.0 L 529.0 195.0 L 518.0 185.0 L 518.0 174.0 L 528.0 160.0 L 537.0 158.0 L 538.0 147.0 L 544.0 136.0 L 547.0 139.0 L 549.0 137.0 L 549.0 128.0 L 505.0 117.0 L 464.0 112.0 L 421.0 113.0 Z M 598.0 279.0 L 596.0 281.0 L 593.0 281.0 L 591.0 283.0 L 588.0 284.0 L 583.0 280.0 L 580.0 280.0 L 579.0 281.0 L 574.0 280.0 L 572.0 275.0 L 575.0 274.0 L 581.0 275.0 L 583.0 277.0 L 586.0 276.0 L 588.0 273.0 L 594.0 273.0 L 598.0 277.0 Z M 568.0 269.0 L 571.0 272.0 L 570.0 276.0 L 564.0 279.0 L 562.0 279.0 L 558.0 274.0 L 561.0 270.0 Z M 546.0 266.0 L 547.0 264.0 L 551.0 264.0 L 554.0 266.0 L 557.0 270.0 L 554.0 272.0 L 550.0 270.0 Z M 578.0 263.0 L 581.0 260.0 L 584.0 260.0 L 586.0 262.0 L 586.0 266.0 L 589.0 269.0 L 587.0 270.0 L 584.0 268.0 L 580.0 267.0 L 578.0 265.0 Z M 531.0 252.0 L 534.0 252.0 L 538.0 256.0 L 545.0 260.0 L 546.0 265.0 L 542.0 265.0 L 536.0 259.0 L 534.0 259.0 L 530.0 255.0 Z M 518.0 236.0 L 520.0 236.0 L 522.0 238.0 L 523.0 242.0 L 530.0 249.0 L 529.0 252.0 L 527.0 252.0 L 522.0 246.0 L 519.0 245.0 L 516.0 242.0 L 515.0 239.0 Z M 495.0 224.0 L 497.0 222.0 L 499.0 222.0 L 501.0 220.0 L 503.0 220.0 L 506.0 217.0 L 510.0 216.0 L 512.0 217.0 L 516.0 222.0 L 515.0 229.0 L 517.0 232.0 L 517.0 235.0 L 513.0 238.0 L 506.0 232.0 L 501.0 231.0 Z M 470.0 216.0 L 471.0 213.0 L 477.0 213.0 L 482.0 215.0 L 483.0 217.0 L 487.0 216.0 L 492.0 219.0 L 494.0 222.0 L 492.0 224.0 L 490.0 224.0 L 485.0 222.0 L 483.0 219.0 L 479.0 222.0 L 476.0 222.0 Z M 511.0 203.0 L 513.0 205.0 L 513.0 212.0 L 508.0 214.0 L 507.0 212.0 L 507.0 206.0 Z M 518.0 190.0 L 517.0 195.0 L 518.0 199.0 L 516.0 201.0 L 510.0 200.0 L 509.0 198.0 L 511.0 196.0 L 512.0 192.0 L 515.0 189.0 Z M 458.0 121.0 L 462.0 125.0 L 463.0 128.0 L 462.0 152.0 L 457.0 156.0 L 454.0 156.0 L 449.0 152.0 L 446.0 151.0 L 443.0 154.0 L 438.0 154.0 L 436.0 152.0 L 436.0 126.0 L 439.0 123.0 L 443.0 124.0 L 446.0 128.0 L 448.0 129.0 L 452.0 126.0 L 456.0 121.0 Z" fill="#e2f4fc" fill-rule="evenodd"/>
<path d="M 292.0 356.0 L 294.0 357.0 L 298.0 354.0 L 294.0 354.0 Z M 613.0 265.0 L 612.0 269.0 L 606.0 271.0 L 608.0 276.0 L 614.0 279.0 L 618.0 279.0 L 621.0 276.0 L 621.0 274.0 Z M 579.0 263.0 L 580.0 266.0 L 582.0 266.0 L 588.0 269.0 L 585.0 266.0 L 584.0 261.0 L 581.0 261.0 Z M 698.0 238.0 L 692.0 244.0 L 694.0 261.0 L 694.0 286.0 L 691.0 308.0 L 685.0 331.0 L 675.0 357.0 L 679.0 360.0 L 681.0 364.0 L 684.0 363.0 L 689.0 371.0 L 692.0 372.0 L 694.0 375.0 L 690.0 378.0 L 687.0 378.0 L 688.0 388.0 L 694.0 386.0 L 699.0 381.0 L 701.0 383.0 L 699.0 385.0 L 699.0 387.0 L 701.0 389.0 L 709.0 388.0 L 714.0 384.0 L 716.0 379.0 L 718.0 377.0 L 728.0 378.0 L 718.0 385.0 L 721.0 388.0 L 726.0 387.0 L 728.0 389.0 L 732.0 388.0 L 734.0 384.0 L 734.0 381.0 L 731.0 375.0 L 733.0 375.0 L 736.0 377.0 L 747.0 378.0 L 749.0 376.0 L 753.0 377.0 L 753.0 379.0 L 747.0 384.0 L 748.0 388.0 L 753.0 388.0 L 757.0 386.0 L 757.0 380.0 L 755.0 375.0 L 753.0 358.0 L 743.0 322.0 L 739.0 317.0 L 739.0 312.0 L 736.0 304.0 L 720.0 271.0 L 713.0 259.0 Z M 703.0 377.0 L 705.0 377.0 L 709.0 379.0 L 711.0 382.0 L 708.0 385.0 L 702.0 380.0 Z M 694.0 374.0 L 696.0 372.0 L 699.0 372.0 L 701.0 374.0 L 701.0 376.0 L 698.0 378.0 Z M 387.0 235.0 L 387.0 238.0 L 390.0 242.0 L 392.0 249.0 L 398.0 248.0 L 399.0 245.0 L 401.0 243.0 L 403.0 243.0 L 407.0 239.0 L 406.0 236.0 L 403.0 237.0 L 400.0 235.0 L 398.0 237.0 L 396.0 237.0 L 391.0 234.0 Z M 408.0 210.0 L 405.0 212.0 L 405.0 214.0 L 403.0 216.0 L 398.0 217.0 L 398.0 219.0 L 407.0 221.0 L 404.0 224.0 L 404.0 227.0 L 406.0 230.0 L 410.0 229.0 L 410.0 227.0 L 414.0 220.0 L 413.0 214.0 L 410.0 214.0 L 408.0 212.0 Z M 317.0 189.0 L 315.0 192.0 L 316.0 195.0 L 321.0 195.0 L 325.0 198.0 L 323.0 195.0 L 323.0 191.0 L 320.0 188.0 Z M 271.0 166.0 L 257.0 176.0 L 222.0 208.0 L 194.0 242.0 L 178.0 268.0 L 183.0 272.0 L 186.0 286.0 L 198.0 301.0 L 201.0 301.0 L 214.0 291.0 L 221.0 281.0 L 228.0 283.0 L 210.0 301.0 L 210.0 308.0 L 203.0 320.0 L 216.0 331.0 L 217.0 339.0 L 229.0 332.0 L 231.0 334.0 L 229.0 338.0 L 224.0 340.0 L 226.0 345.0 L 224.0 347.0 L 230.0 345.0 L 234.0 348.0 L 241.0 348.0 L 247.0 345.0 L 245.0 349.0 L 256.0 350.0 L 266.0 343.0 L 272.0 335.0 L 270.0 334.0 L 265.0 337.0 L 259.0 331.0 L 264.0 325.0 L 262.0 323.0 L 266.0 320.0 L 272.0 326.0 L 277.0 339.0 L 277.0 346.0 L 283.0 353.0 L 282.0 342.0 L 285.0 340.0 L 288.0 350.0 L 291.0 350.0 L 291.0 343.0 L 293.0 341.0 L 304.0 338.0 L 311.0 332.0 L 308.0 328.0 L 298.0 331.0 L 291.0 341.0 L 287.0 332.0 L 290.0 329.0 L 299.0 328.0 L 311.0 323.0 L 306.0 319.0 L 304.0 312.0 L 291.0 295.0 L 292.0 291.0 L 303.0 298.0 L 309.0 299.0 L 313.0 305.0 L 323.0 311.0 L 328.0 305.0 L 339.0 306.0 L 349.0 296.0 L 356.0 294.0 L 367.0 280.0 L 365.0 278.0 L 367.0 276.0 L 366.0 261.0 L 368.0 256.0 L 377.0 256.0 L 380.0 250.0 L 365.0 235.0 L 360.0 239.0 L 354.0 235.0 L 353.0 225.0 L 347.0 222.0 L 344.0 216.0 L 337.0 216.0 L 334.0 213.0 L 337.0 208.0 L 333.0 200.0 L 329.0 200.0 L 333.0 211.0 L 331.0 213.0 L 323.0 201.0 L 314.0 198.0 L 307.0 179.0 L 301.0 183.0 L 295.0 180.0 L 290.0 174.0 L 279.0 173.0 Z M 241.0 322.0 L 243.0 325.0 L 242.0 327.0 L 236.0 333.0 L 234.0 333.0 L 232.0 330.0 L 238.0 323.0 Z M 246.0 305.0 L 248.0 307.0 L 248.0 315.0 L 247.0 318.0 L 244.0 320.0 L 241.0 316.0 L 242.0 308.0 Z M 338.0 293.0 L 340.0 295.0 L 340.0 297.0 L 335.0 298.0 Z M 241.0 290.0 L 243.0 290.0 L 245.0 292.0 L 246.0 301.0 L 243.0 303.0 L 241.0 301.0 L 239.0 295.0 L 239.0 292.0 Z M 244.0 275.0 L 246.0 277.0 L 246.0 281.0 L 244.0 286.0 L 241.0 287.0 L 239.0 284.0 L 241.0 278.0 Z M 252.0 264.0 L 254.0 266.0 L 254.0 268.0 L 247.0 274.0 L 245.0 271.0 L 246.0 269.0 Z M 267.0 259.0 L 264.0 262.0 L 262.0 262.0 L 260.0 264.0 L 256.0 263.0 L 256.0 261.0 L 264.0 255.0 Z M 311.0 257.0 L 314.0 254.0 L 318.0 255.0 L 319.0 254.0 L 321.0 254.0 L 322.0 259.0 L 313.0 260.0 Z M 298.0 256.0 L 300.0 254.0 L 305.0 254.0 L 308.0 255.0 L 310.0 258.0 L 308.0 260.0 L 303.0 260.0 L 300.0 259.0 Z M 269.0 256.0 L 272.0 253.0 L 280.0 253.0 L 282.0 255.0 L 279.0 258.0 L 271.0 259.0 Z M 295.0 254.0 L 294.0 258.0 L 290.0 259.0 L 286.0 258.0 L 284.0 255.0 L 286.0 253.0 L 293.0 252.0 Z M 335.0 253.0 L 333.0 257.0 L 326.0 258.0 L 324.0 255.0 L 327.0 252.0 L 330.0 251.0 L 333.0 251.0 Z M 344.0 243.0 L 344.0 245.0 L 347.0 248.0 L 341.0 253.0 L 339.0 253.0 L 337.0 251.0 L 337.0 249.0 Z M 354.0 238.0 L 356.0 240.0 L 356.0 242.0 L 351.0 246.0 L 349.0 246.0 L 347.0 243.0 L 352.0 238.0 Z M 272.0 198.0 L 281.0 198.0 L 288.0 202.0 L 292.0 207.0 L 294.0 213.0 L 294.0 218.0 L 292.0 224.0 L 278.0 247.0 L 274.0 247.0 L 271.0 241.0 L 268.0 238.0 L 264.0 231.0 L 259.0 220.0 L 259.0 211.0 L 261.0 206.0 L 267.0 200.0 Z M 413.0 165.0 L 408.0 166.0 L 406.0 168.0 L 404.0 168.0 L 404.0 173.0 L 405.0 175.0 L 412.0 177.0 L 416.0 182.0 L 412.0 187.0 L 412.0 190.0 L 414.0 193.0 L 414.0 195.0 L 411.0 197.0 L 407.0 192.0 L 407.0 200.0 L 412.0 207.0 L 416.0 208.0 L 417.0 204.0 L 416.0 200.0 L 418.0 198.0 L 421.0 192.0 L 421.0 188.0 L 424.0 184.0 L 424.0 179.0 L 422.0 177.0 L 418.0 177.0 L 413.0 173.0 L 408.0 173.0 L 406.0 171.0 L 406.0 169.0 L 408.0 167.0 L 412.0 167.0 Z M 417.0 162.0 L 417.0 164.0 L 420.0 166.0 L 421.0 162.0 Z M 552.0 129.0 L 550.0 138.0 L 544.0 141.0 L 540.0 147.0 L 537.0 160.0 L 530.0 160.0 L 519.0 176.0 L 520.0 180.0 L 524.0 178.0 L 526.0 180.0 L 522.0 189.0 L 529.0 194.0 L 527.0 205.0 L 545.0 224.0 L 543.0 227.0 L 549.0 232.0 L 554.0 231.0 L 557.0 237.0 L 563.0 241.0 L 560.0 244.0 L 561.0 247.0 L 565.0 249.0 L 571.0 248.0 L 580.0 256.0 L 588.0 260.0 L 597.0 261.0 L 603.0 269.0 L 605.0 267.0 L 599.0 260.0 L 589.0 238.0 L 591.0 225.0 L 604.0 215.0 L 617.0 217.0 L 624.0 224.0 L 627.0 231.0 L 626.0 239.0 L 616.0 260.0 L 621.0 260.0 L 629.0 265.0 L 631.0 286.0 L 634.0 290.0 L 633.0 296.0 L 635.0 299.0 L 633.0 301.0 L 640.0 309.0 L 649.0 302.0 L 654.0 306.0 L 647.0 313.0 L 647.0 316.0 L 655.0 325.0 L 652.0 328.0 L 645.0 328.0 L 641.0 322.0 L 632.0 328.0 L 629.0 323.0 L 636.0 314.0 L 628.0 306.0 L 628.0 300.0 L 630.0 299.0 L 626.0 300.0 L 620.0 294.0 L 620.0 288.0 L 617.0 285.0 L 611.0 287.0 L 612.0 292.0 L 617.0 295.0 L 615.0 298.0 L 614.0 296.0 L 606.0 295.0 L 615.0 313.0 L 621.0 315.0 L 619.0 323.0 L 622.0 328.0 L 631.0 330.0 L 637.0 336.0 L 642.0 336.0 L 649.0 344.0 L 650.0 354.0 L 652.0 346.0 L 658.0 343.0 L 665.0 323.0 L 673.0 284.0 L 673.0 265.0 L 670.0 256.0 L 666.0 258.0 L 663.0 255.0 L 671.0 250.0 L 663.0 219.0 L 650.0 194.0 L 627.0 168.0 L 578.0 140.0 L 576.0 147.0 L 574.0 147.0 L 572.0 144.0 L 574.0 139.0 Z M 650.0 335.0 L 653.0 338.0 L 652.0 344.0 L 649.0 343.0 L 647.0 339.0 L 647.0 337.0 Z M 656.0 291.0 L 658.0 294.0 L 656.0 298.0 L 653.0 300.0 L 651.0 298.0 L 651.0 295.0 Z M 658.0 280.0 L 660.0 282.0 L 660.0 288.0 L 657.0 290.0 L 654.0 287.0 L 654.0 284.0 L 655.0 282.0 Z M 640.0 276.0 L 643.0 276.0 L 645.0 278.0 L 647.0 285.0 L 647.0 293.0 L 645.0 299.0 L 645.0 303.0 L 642.0 305.0 L 638.0 301.0 L 636.0 297.0 L 637.0 289.0 L 636.0 281.0 Z M 656.0 268.0 L 658.0 270.0 L 660.0 276.0 L 658.0 278.0 L 654.0 277.0 L 653.0 274.0 L 653.0 270.0 Z M 661.0 256.0 L 663.0 258.0 L 663.0 260.0 L 658.0 266.0 L 655.0 265.0 L 655.0 262.0 L 657.0 259.0 Z M 666.0 242.0 L 668.0 244.0 L 664.0 250.0 L 663.0 244.0 Z M 535.0 172.0 L 535.0 174.0 L 532.0 177.0 L 530.0 178.0 L 527.0 177.0 L 527.0 175.0 L 531.0 171.0 Z M 547.0 168.0 L 541.0 172.0 L 537.0 171.0 L 537.0 169.0 L 543.0 165.0 L 545.0 165.0 Z M 560.0 163.0 L 554.0 167.0 L 549.0 166.0 L 549.0 164.0 L 551.0 162.0 L 556.0 160.0 L 558.0 160.0 Z M 565.0 156.0 L 567.0 159.0 L 565.0 161.0 L 563.0 161.0 L 561.0 159.0 Z M 572.0 149.0 L 574.0 152.0 L 569.0 158.0 L 567.0 154.0 L 568.0 152.0 Z M 373.0 122.0 L 379.0 127.0 L 378.0 131.0 L 379.0 134.0 L 384.0 134.0 L 390.0 138.0 L 391.0 141.0 L 391.0 146.0 L 396.0 146.0 L 405.0 149.0 L 403.0 153.0 L 399.0 156.0 L 401.0 158.0 L 404.0 159.0 L 407.0 159.0 L 408.0 158.0 L 415.0 159.0 L 415.0 157.0 L 411.0 153.0 L 409.0 147.0 L 407.0 145.0 L 406.0 142.0 L 400.0 142.0 L 398.0 144.0 L 394.0 141.0 L 394.0 134.0 L 391.0 130.0 L 388.0 133.0 L 386.0 133.0 L 382.0 129.0 L 380.0 124.0 L 376.0 120.0 Z" fill="#ecf2e9" fill-rule="evenodd"/>
<path d="M 559.0 553.0 L 559.0 565.0 L 561.0 565.0 L 569.0 560.0 L 567.0 557.0 Z M 640.0 502.0 L 630.0 504.0 L 608.0 512.0 L 575.0 529.0 L 573.0 531.0 L 573.0 533.0 L 578.0 552.0 L 580.0 554.0 L 583.0 551.0 L 612.0 536.0 L 624.0 531.0 L 641.0 526.0 Z M 556.0 489.0 L 544.0 493.0 L 494.0 519.0 L 472.0 527.0 L 453.0 531.0 L 451.0 551.0 L 449.0 553.0 L 447.0 551.0 L 444.0 533.0 L 421.0 555.0 L 419.0 553.0 L 420.0 532.0 L 383.0 526.0 L 378.0 535.0 L 380.0 548.0 L 406.0 564.0 L 380.0 558.0 L 377.0 571.0 L 371.0 570.0 L 362.0 573.0 L 356.0 570.0 L 356.0 577.0 L 385.0 591.0 L 408.0 598.0 L 427.0 601.0 L 456.0 601.0 L 471.0 599.0 L 507.0 588.0 L 525.0 580.0 L 523.0 570.0 L 524.0 547.0 L 499.0 560.0 L 494.0 561.0 L 492.0 559.0 L 504.0 554.0 L 527.0 539.0 L 538.0 513.0 Z M 449.0 561.0 L 456.0 563.0 L 459.0 567.0 L 456.0 570.0 L 449.0 568.0 L 448.0 572.0 L 453.0 573.0 L 457.0 575.0 L 460.0 578.0 L 460.0 585.0 L 454.0 590.0 L 444.0 590.0 L 440.0 588.0 L 439.0 584.0 L 442.0 581.0 L 447.0 584.0 L 452.0 583.0 L 451.0 580.0 L 446.0 579.0 L 442.0 577.0 L 439.0 573.0 L 439.0 568.0 L 440.0 566.0 L 443.0 563.0 L 448.0 562.0 Z M 260.0 474.0 L 257.0 474.0 L 247.0 471.0 L 231.0 469.0 L 208.0 469.0 L 198.0 470.0 L 182.0 473.0 L 168.0 477.0 L 153.0 483.0 L 140.0 490.0 L 138.0 492.0 L 139.0 501.0 L 142.0 514.0 L 152.0 545.0 L 154.0 545.0 L 166.0 539.0 L 175.0 536.0 L 185.0 534.0 L 196.0 522.0 L 202.0 518.0 L 209.0 515.0 L 217.0 513.0 L 233.0 513.0 L 243.0 516.0 L 252.0 522.0 L 254.0 522.0 L 253.0 511.0 L 255.0 509.0 L 255.0 499.0 L 257.0 487.0 L 260.0 478.0 Z M 641.0 465.0 L 613.0 470.0 L 588.0 477.0 L 581.0 480.0 L 579.0 482.0 L 574.0 500.0 L 572.0 512.0 L 572.0 518.0 L 574.0 518.0 L 583.0 513.0 L 598.0 507.0 L 616.0 501.0 L 641.0 495.0 L 642.0 473.0 Z M 677.0 465.0 L 678.0 492.0 L 696.0 494.0 L 714.0 498.0 L 717.0 502.0 L 708.0 500.0 L 690.0 498.0 L 677.0 499.0 L 677.0 520.0 L 688.0 520.0 L 711.0 523.0 L 728.0 528.0 L 746.0 536.0 L 749.0 532.0 L 756.0 506.0 L 760.0 486.0 L 759.0 482.0 L 742.0 475.0 L 718.0 468.0 L 692.0 464.0 Z" fill="#388bc3" fill-rule="evenodd"/>
<path d="M 555.0 621.0 L 546.0 615.0 L 540.0 609.0 L 534.0 601.0 L 533.0 598.0 L 530.0 595.0 L 527.0 585.0 L 525.0 582.0 L 521.0 582.0 L 497.0 593.0 L 476.0 599.0 L 465.0 600.0 L 461.0 602.0 L 461.0 604.0 L 469.0 603.0 L 472.0 605.0 L 481.0 606.0 L 481.0 608.0 L 471.0 617.0 L 466.0 620.0 L 461.0 625.0 L 445.0 637.0 L 435.0 647.0 L 462.0 648.0 L 471.0 640.0 L 478.0 637.0 L 485.0 636.0 L 495.0 636.0 L 496.0 637.0 L 536.0 636.0 L 547.0 628.0 L 555.0 624.0 Z M 355.0 578.0 L 356.0 590.0 L 361.0 602.0 L 372.0 614.0 L 377.0 617.0 L 384.0 617.0 L 396.0 612.0 L 399.0 612.0 L 402.0 610.0 L 424.0 605.0 L 458.0 602.0 L 427.0 602.0 L 408.0 599.0 L 385.0 592.0 L 358.0 578.0 Z M 263.0 572.0 L 264.0 589.0 L 263.0 601.0 L 261.0 611.0 L 259.0 615.0 L 259.0 619.0 L 255.0 630.0 L 257.0 632.0 L 289.0 647.0 L 302.0 655.0 L 304.0 655.0 L 312.0 660.0 L 320.0 663.0 L 326.0 667.0 L 356.0 667.0 L 356.0 665.0 L 354.0 662.0 L 352.0 661.0 L 352.0 658.0 L 350.0 656.0 L 341.0 653.0 L 335.0 649.0 L 329.0 647.0 L 326.0 644.0 L 320.0 641.0 L 302.0 627.0 L 291.0 616.0 L 276.0 596.0 L 266.0 577.0 L 265.0 573.0 Z M 182.0 535.0 L 159.0 543.0 L 155.0 545.0 L 154.0 549.0 L 157.0 559.0 L 168.0 583.0 L 185.0 612.0 L 189.0 615.0 L 196.0 613.0 L 204.0 609.0 L 216.0 598.0 L 220.0 592.0 L 224.0 582.0 L 225.0 577.0 L 225.0 568.0 L 224.0 562.0 L 221.0 554.0 L 214.0 546.0 L 209.0 543.0 L 204.0 542.0 L 196.0 543.0 L 192.0 545.0 L 186.0 551.0 L 185.0 554.0 L 182.0 554.0 L 181.0 551.0 L 182.0 540.0 L 184.0 537.0 L 184.0 535.0 Z M 641.0 528.0 L 633.0 529.0 L 619.0 534.0 L 583.0 552.0 L 580.0 555.0 L 581.0 563.0 L 578.0 563.0 L 575.0 561.0 L 570.0 560.0 L 560.0 566.0 L 559.0 568.0 L 561.0 570.0 L 561.0 575.0 L 565.0 583.0 L 571.0 589.0 L 576.0 592.0 L 581.0 594.0 L 590.0 595.0 L 600.0 594.0 L 606.0 592.0 L 615.0 587.0 L 625.0 578.0 L 632.0 568.0 L 638.0 552.0 L 640.0 542.0 Z M 677.0 522.0 L 677.0 535.0 L 675.0 551.0 L 672.0 564.0 L 669.0 573.0 L 667.0 576.0 L 666.0 581.0 L 675.0 581.0 L 691.0 584.0 L 700.0 587.0 L 712.0 593.0 L 717.0 597.0 L 720.0 597.0 L 734.0 571.0 L 746.0 541.0 L 746.0 537.0 L 728.0 529.0 L 711.0 524.0 L 688.0 521.0 Z" fill="#0164a2" fill-rule="evenodd"/>
<path d="M 246.0 345.0 L 241.0 349.0 L 234.0 349.0 L 232.0 347.0 L 229.0 346.0 L 227.0 348.0 L 224.0 348.0 L 229.0 352.0 L 230.0 355.0 L 232.0 356.0 L 239.0 353.0 Z M 220.0 339.0 L 219.0 343.0 L 223.0 346.0 L 225.0 345.0 L 222.0 339.0 Z M 177.0 270.0 L 167.0 289.0 L 167.0 291.0 L 171.0 292.0 L 174.0 295.0 L 177.0 300.0 L 177.0 306.0 L 180.0 310.0 L 182.0 310.0 L 186.0 313.0 L 190.0 312.0 L 195.0 318.0 L 195.0 323.0 L 196.0 325.0 L 199.0 328.0 L 204.0 329.0 L 206.0 331.0 L 207.0 334.0 L 213.0 339.0 L 216.0 338.0 L 215.0 331.0 L 211.0 327.0 L 208.0 326.0 L 202.0 319.0 L 204.0 316.0 L 205.0 312.0 L 209.0 308.0 L 209.0 301.0 L 212.0 298.0 L 216.0 296.0 L 227.0 283.0 L 221.0 282.0 L 219.0 284.0 L 218.0 288.0 L 211.0 291.0 L 210.0 295.0 L 208.0 297.0 L 205.0 298.0 L 201.0 302.0 L 198.0 302.0 L 185.0 286.0 L 182.0 272.0 L 179.0 269.0 Z M 687.0 225.0 L 692.0 243.0 L 696.0 240.0 L 697.0 236.0 L 693.0 232.0 L 690.0 227.0 Z M 527.0 198.0 L 525.0 199.0 L 525.0 204.0 L 527.0 206.0 Z M 275.0 164.0 L 274.0 167.0 L 279.0 172.0 L 288.0 172.0 L 295.0 179.0 L 301.0 182.0 L 303.0 182.0 L 307.0 178.0 L 309.0 180.0 L 309.0 185.0 L 312.0 189.0 L 313.0 196.0 L 325.0 201.0 L 331.0 212.0 L 330.0 204.0 L 328.0 200.0 L 331.0 198.0 L 333.0 199.0 L 338.0 209.0 L 335.0 213.0 L 337.0 215.0 L 343.0 214.0 L 347.0 221.0 L 350.0 221.0 L 354.0 225.0 L 356.0 233.0 L 355.0 235.0 L 357.0 236.0 L 359.0 230.0 L 361.0 232.0 L 365.0 230.0 L 367.0 233.0 L 366.0 237.0 L 381.0 250.0 L 381.0 253.0 L 378.0 257.0 L 381.0 255.0 L 382.0 245.0 L 387.0 244.0 L 390.0 248.0 L 389.0 242.0 L 386.0 238.0 L 386.0 235.0 L 388.0 233.0 L 391.0 233.0 L 396.0 236.0 L 404.0 235.0 L 401.0 232.0 L 404.0 230.0 L 403.0 224.0 L 406.0 220.0 L 402.0 221.0 L 394.0 217.0 L 392.0 212.0 L 395.0 209.0 L 404.0 211.0 L 411.0 208.0 L 411.0 206.0 L 406.0 200.0 L 408.0 191.0 L 413.0 195.0 L 411.0 187.0 L 415.0 181.0 L 410.0 177.0 L 406.0 177.0 L 403.0 173.0 L 404.0 167.0 L 412.0 164.0 L 415.0 165.0 L 415.0 160.0 L 404.0 161.0 L 398.0 157.0 L 399.0 154.0 L 402.0 153.0 L 402.0 150.0 L 400.0 148.0 L 391.0 147.0 L 389.0 145.0 L 389.0 138.0 L 384.0 135.0 L 379.0 135.0 L 377.0 133.0 L 378.0 127.0 L 372.0 122.0 L 351.0 127.0 L 324.0 137.0 L 301.0 148.0 Z M 380.0 224.0 L 380.0 227.0 L 378.0 229.0 L 370.0 230.0 L 369.0 226.0 L 370.0 224.0 L 375.0 221.0 L 377.0 221.0 Z M 390.0 215.0 L 392.0 218.0 L 390.0 220.0 L 384.0 223.0 L 382.0 223.0 L 380.0 220.0 L 383.0 217.0 Z M 317.0 188.0 L 320.0 187.0 L 324.0 191.0 L 324.0 199.0 L 321.0 196.0 L 316.0 196.0 L 314.0 194.0 L 314.0 192.0 Z" fill="#dbe7d8" fill-rule="evenodd"/>
<path d="M 719.0 599.0 L 712.0 594.0 L 700.0 588.0 L 691.0 585.0 L 675.0 582.0 L 664.0 583.0 L 662.0 588.0 L 656.0 597.0 L 644.0 610.0 L 634.0 618.0 L 621.0 625.0 L 613.0 628.0 L 599.0 631.0 L 583.0 631.0 L 569.0 628.0 L 561.0 625.0 L 559.0 623.0 L 557.0 623.0 L 538.0 635.0 L 537.0 637.0 L 578.0 636.0 L 592.0 637.0 L 646.0 636.0 L 655.0 637.0 L 662.0 636.0 L 674.0 637.0 L 688.0 642.0 L 701.0 627.0 L 714.0 608.0 Z M 211.0 529.0 L 222.0 531.0 L 228.0 534.0 L 236.0 540.0 L 246.0 553.0 L 251.0 563.0 L 254.0 577.0 L 254.0 600.0 L 249.0 621.0 L 249.0 629.0 L 247.0 634.0 L 247.0 637.0 L 253.0 641.0 L 259.0 647.0 L 263.0 656.0 L 264.0 663.0 L 263.0 664.0 L 264.0 667.0 L 323.0 666.0 L 304.0 656.0 L 302.0 656.0 L 289.0 648.0 L 257.0 633.0 L 254.0 630.0 L 255.0 625.0 L 253.0 625.0 L 254.0 622.0 L 256.0 623.0 L 258.0 619.0 L 258.0 615.0 L 260.0 611.0 L 262.0 601.0 L 263.0 588.0 L 263.0 568.0 L 259.0 554.0 L 257.0 550.0 L 248.0 541.0 L 238.0 534.0 L 229.0 530.0 L 221.0 528.0 Z" fill="#014d87" fill-rule="evenodd"/>
<path d="M 381.0 552.0 L 380.0 556.0 L 382.0 556.0 L 395.0 561.0 L 401.0 561.0 L 399.0 561.0 Z M 447.0 529.0 L 445.0 530.0 L 445.0 532.0 L 447.0 536.0 Z" fill="#b9c5d2" fill-rule="evenodd"/>
<path d="M 527.0 541.0 L 524.0 541.0 L 518.0 546.0 L 504.0 555.0 L 496.0 559.0 L 494.0 559.0 L 492.0 561.0 L 506.0 556.0 L 516.0 551.0 L 518.0 549.0 L 525.0 546.0 Z M 185.0 540.0 L 191.0 533.0 L 200.0 528.0 L 207.0 526.0 L 219.0 526.0 L 231.0 529.0 L 239.0 533.0 L 249.0 540.0 L 257.0 547.0 L 255.0 536.0 L 255.0 528.0 L 254.0 527.0 L 254.0 523.0 L 252.0 523.0 L 243.0 517.0 L 233.0 514.0 L 217.0 514.0 L 209.0 516.0 L 202.0 519.0 L 196.0 523.0 L 188.0 531.0 Z M 641.0 497.0 L 636.0 497.0 L 616.0 502.0 L 583.0 514.0 L 573.0 519.0 L 574.0 529.0 L 582.0 525.0 L 584.0 523.0 L 608.0 511.0 L 630.0 503.0 L 641.0 501.0 Z M 677.0 494.0 L 678.0 497.0 L 700.0 498.0 L 714.0 500.0 L 715.0 501.0 L 717.0 500.0 L 696.0 495.0 L 681.0 493.0 Z" fill="#8caec9" fill-rule="evenodd"/>
<path d="M 200.0 530.0 L 191.0 535.0 L 187.0 539.0 L 183.0 547.0 L 184.0 553.0 L 185.0 550.0 L 191.0 544.0 L 197.0 541.0 L 208.0 541.0 L 212.0 543.0 L 220.0 550.0 L 224.0 557.0 L 226.0 564.0 L 226.0 580.0 L 224.0 587.0 L 217.0 599.0 L 208.0 608.0 L 200.0 613.0 L 189.0 617.0 L 189.0 619.0 L 194.0 627.0 L 203.0 637.0 L 246.0 638.0 L 248.0 629.0 L 248.0 621.0 L 251.0 611.0 L 253.0 600.0 L 253.0 577.0 L 250.0 563.0 L 245.0 553.0 L 238.0 543.0 L 228.0 535.0 L 219.0 531.0 L 211.0 530.0 L 209.0 528.0 Z" fill="#013b70" fill-rule="evenodd"/>
</g>
</svg>